<svg width="36" height="39" viewBox="0 0 36 39" fill="none" xmlns="http://www.w3.org/2000/svg">
<path fill-rule="evenodd" clip-rule="evenodd" d="M12.5775 12.6832C11.4714 12.6832 10.5748 13.5798 10.5748 14.6859C10.5748 15.792 11.4714 16.6887 12.5775 16.6887C13.6836 16.6887 14.5803 15.792 14.5803 14.6859C14.5803 13.5798 13.6836 12.6832 12.5775 12.6832ZM7.71777 14.6859C7.71777 12.002 9.89357 9.82617 12.5775 9.82617C15.2615 9.82617 17.4373 12.002 17.4373 14.6859C17.4373 17.3699 15.2615 19.5457 12.5775 19.5457C9.89357 19.5457 7.71777 17.3699 7.71777 14.6859Z" fill="#FF5800"/>
<path fill-rule="evenodd" clip-rule="evenodd" d="M22.8324 22.9371C21.7263 22.9371 20.8297 23.8338 20.8297 24.9398C20.8297 26.0459 21.7263 26.9426 22.8324 26.9426C23.9385 26.9426 24.8352 26.0459 24.8352 24.9398C24.8352 23.8338 23.9385 22.9371 22.8324 22.9371ZM17.9727 24.9398C17.9727 22.2559 20.1484 20.0801 22.8324 20.0801C25.5164 20.0801 27.6922 22.2559 27.6922 24.9398C27.6922 27.6238 25.5164 29.7996 22.8324 29.7996C20.1484 29.7996 17.9727 27.6238 17.9727 24.9398Z" fill="#FF5800"/>
<path fill-rule="evenodd" clip-rule="evenodd" d="M23.1638 11.7292C23.8177 12.1707 23.9898 13.0586 23.5483 13.7125L14.2287 27.5137C13.7872 28.1675 12.8993 28.3397 12.2454 27.8981C11.5916 27.4566 11.4195 26.5687 11.861 25.9148L21.1806 12.1136C21.6221 11.4598 22.51 11.2876 23.1638 11.7292Z" fill="#FF5800"/>
<path fill-rule="evenodd" clip-rule="evenodd" d="M12.7994 2.72008C14.0614 1.70871 15.6849 0.626953 17.7041 0.626953C19.7232 0.626953 21.347 1.70865 22.6092 2.71999C23.0153 3.04539 23.4381 3.41021 23.8321 3.75014C24.0414 3.93074 24.2425 4.10431 24.4287 4.26121C25.0052 4.74697 25.5166 5.14322 26.0093 5.42811L26.0099 5.42847C26.5272 5.72792 27.1444 5.98576 27.8595 6.2512C28.104 6.34194 28.3744 6.4385 28.6552 6.53876C29.1354 6.71022 29.6458 6.89249 30.1085 7.07496C31.5987 7.66266 33.3365 8.51486 34.3216 10.2165L34.322 10.2171C35.286 11.8844 35.1528 13.793 34.9232 15.3632C34.8541 15.8353 34.7619 16.3555 34.6744 16.8492C34.6193 17.1602 34.5661 17.4606 34.5217 17.7319C34.397 18.4934 34.3119 19.1812 34.3119 19.8137C34.3119 20.4451 34.397 21.1322 34.5217 21.8936C34.566 22.1644 34.6191 22.4641 34.6741 22.7742C34.7616 23.2684 34.8539 23.7893 34.9231 24.2624C35.1526 25.8328 35.2855 27.7422 34.3209 29.4095C33.3363 31.1113 31.5986 31.9639 30.1085 32.5517C29.645 32.7346 29.134 32.9171 28.6532 33.0887C28.3732 33.1887 28.1035 33.285 27.8594 33.3756C27.1442 33.641 26.527 33.8988 26.0096 34.1981C25.5167 34.4833 25.0051 34.8798 24.4286 35.3656C24.2426 35.5223 24.0417 35.6956 23.8328 35.8759C23.4385 36.216 23.0153 36.5811 22.6087 36.9068C21.3465 37.918 19.7227 38.9994 17.7041 38.9994C15.6855 38.9994 14.062 37.918 12.7999 36.9068C12.3935 36.5811 11.9705 36.2161 11.5763 35.876C11.3673 35.6957 11.1664 35.5223 10.9804 35.3655C10.404 34.8797 9.89248 34.4833 9.39964 34.1981C8.88225 33.8988 8.26497 33.641 7.54977 33.3756C7.30566 33.285 7.03582 33.1887 6.75566 33.0886C6.27502 32.917 5.76404 32.7346 5.30062 32.5517C3.81036 31.9639 2.07261 31.1114 1.08761 29.4099L1.08746 29.4096C0.122657 27.7422 0.255939 25.8336 0.485712 24.2635C0.554788 23.7915 0.64703 23.2713 0.73457 22.7777C0.789703 22.4667 0.842971 22.1664 0.887414 21.8951C1.01218 21.1337 1.09729 20.4461 1.09729 19.8137C1.09729 19.1812 1.01218 18.4936 0.88741 17.732C0.842969 17.4608 0.789707 17.1604 0.734581 16.8495C0.647036 16.3557 0.55479 15.8355 0.485707 15.3633C0.255971 13.7932 0.122681 11.8846 1.08713 10.2173C1.08724 10.2171 1.08735 10.2169 1.08746 10.2168C2.07255 8.51294 3.8106 7.66072 5.30109 7.07338C5.76393 6.891 6.27462 6.70886 6.75494 6.53756C7.03559 6.43746 7.30587 6.34107 7.55018 6.25049C8.26524 5.98535 8.88222 5.72779 9.39929 5.42847L9.3999 5.42811C9.89257 5.14324 10.4039 4.74702 10.9803 4.26128C11.1665 4.10434 11.3677 3.93069 11.577 3.75001C11.9709 3.41014 12.3935 3.04538 12.7994 2.72008ZM10.8303 7.90124C10.8304 7.90118 10.8305 7.90112 10.8306 7.90106C11.5491 7.48554 12.2168 6.95553 12.8215 6.44585C13.0647 6.2409 13.2904 6.04583 13.5093 5.85665C13.8709 5.54421 14.2139 5.24782 14.5861 4.94948C15.7629 4.00641 16.7225 3.48396 17.7041 3.48396C18.6858 3.48396 19.6457 4.00647 20.8227 4.94956C21.1951 5.24797 21.5383 5.54446 21.9001 5.85701C22.1189 6.04611 22.3446 6.24109 22.5876 6.44591C23.1926 6.95573 23.8605 7.48587 24.5792 7.90142C25.3112 8.32509 26.1116 8.64986 26.8653 8.92964C27.1871 9.04908 27.4867 9.15576 27.7763 9.25891C28.2128 9.41433 28.6267 9.56174 29.0603 9.73274C30.4789 10.2922 31.387 10.8503 31.8487 11.6472C32.2855 12.4027 32.3178 13.4349 32.0962 14.9498C32.0302 15.4011 31.9553 15.8212 31.8762 16.265C31.8198 16.5814 31.7612 16.9098 31.7022 17.2702C31.5702 18.0767 31.4549 18.9462 31.4549 19.8137C31.4549 20.6802 31.5702 21.5494 31.7022 22.3554C31.7611 22.7148 31.8195 23.0425 31.8758 23.3583C31.955 23.8029 32.0301 24.2237 32.0961 24.6755C32.3175 26.1906 32.285 27.2234 31.8479 27.9788L31.8479 27.9789C31.3867 28.776 30.4788 29.3343 29.0601 29.8941C28.6261 30.0653 28.2114 30.2129 27.7742 30.3686C27.4851 30.4716 27.1862 30.578 26.8653 30.6971C26.1115 30.9769 25.311 31.3016 24.5789 31.7251L24.5788 31.7252C23.8604 32.1409 23.1925 32.671 22.5875 33.1809C22.3449 33.3853 22.1196 33.58 21.901 33.7688C21.5388 34.0817 21.1952 34.3785 20.8225 34.6771C19.6454 35.6201 18.6854 36.1424 17.7041 36.1424C16.7229 36.1424 15.7632 35.6201 14.5864 34.6772C14.2138 34.3786 13.8704 34.0819 13.5083 33.7691C13.2897 33.5802 13.0643 33.3855 12.8216 33.1809C12.2167 32.6711 11.5489 32.1409 10.8304 31.7252L10.8303 31.7251C10.0982 31.3016 9.2977 30.9769 8.54383 30.6971C8.22288 30.578 7.92388 30.4715 7.63472 30.3685C7.1976 30.2129 6.78297 30.0652 6.349 29.894C4.93026 29.3344 4.02198 28.776 3.56034 27.9788C3.12331 27.2235 3.09098 26.1917 3.31261 24.6772C3.37865 24.2259 3.45358 23.806 3.53273 23.3623C3.58917 23.0459 3.64777 22.7175 3.70682 22.3571C3.83895 21.5508 3.9543 20.6812 3.9543 19.8137C3.9543 18.9462 3.83895 18.0765 3.70683 17.2701C3.64778 16.9097 3.5892 16.5813 3.53276 16.2649C3.45359 15.8211 3.37866 15.401 3.31261 14.9497C3.09097 13.4349 3.12332 12.4029 3.56034 11.6476L3.56067 11.647C4.02224 10.8485 4.93004 10.2904 6.34853 9.73146C6.78214 9.56059 7.1961 9.41335 7.63259 9.25811C7.92218 9.1551 8.22169 9.04858 8.54343 8.92928C9.29722 8.64979 10.0978 8.32522 10.83 7.90142C10.8301 7.90136 10.8302 7.9013 10.8303 7.90124Z" fill="#FF5800"/>
</svg>
