<svg width="39" height="39" viewBox="0 0 39 39" fill="none" xmlns="http://www.w3.org/2000/svg">
<g clip-path="url(#clip0_1864_13400)">
<path d="M26.2058 10.1247C26.8006 10.7194 27.7642 10.721 28.3589 10.1247L30.4779 8.00566C31.0719 7.41091 31.0702 6.44728 30.4779 5.85172L25.1292 0.504656C24.5361 -0.0900937 23.5725 -0.0900937 22.9777 0.504656L20.8579 2.62366C20.2648 3.21841 20.2648 4.18203 20.8579 4.77516L26.2058 10.1247Z" fill="#FF5800"/>
<path d="M13.5422 23.0261C14.1361 23.6184 15.0998 23.6184 15.6937 23.0261L17.8135 20.9054C18.4082 20.3123 18.4082 19.3479 17.8135 18.7531L12.4648 13.4044C11.8709 12.8113 10.9073 12.8097 10.3125 13.4044L8.1935 15.5234C7.59875 16.1182 7.60038 17.0818 8.1935 17.6766L13.5422 23.0261Z" fill="#FF5800"/>
<path d="M37.8216 23.5334L35.6709 21.3803C35.0746 20.7871 34.1134 20.7871 33.5194 21.3803L32.5761 22.3228L23.4721 13.2171L25.444 11.2443L19.9734 5.77539L18.0007 7.74814L15.4884 10.2588L13.5596 12.1876L19.0293 17.6582L20.9606 15.7301L30.0631 24.8342L29.2116 25.6865C28.6168 26.2788 28.6152 27.2433 29.2116 27.838L31.3623 29.9895C31.9586 30.5859 32.9214 30.5859 33.5154 29.9895L37.8208 25.6857C38.4164 25.0901 38.4164 24.1281 37.8216 23.5334Z" fill="#FF5800"/>
<path d="M21.92 30.0742C21.92 29.1 21.1302 28.3086 20.1544 28.3086H6.36792C5.39292 28.3086 4.60236 29.1 4.60236 30.0742V32.9398H0.732422V38.9434H25.5608V32.9398H21.92V30.0742Z" fill="#FF5800"/>
</g>
<defs>
<clipPath id="clip0_1864_13400">
<rect width="39" height="39" fill="white"/>
</clipPath>
</defs>
</svg>
