<svg width="40" height="40" viewBox="0 0 40 40" fill="none" xmlns="http://www.w3.org/2000/svg">
<path d="M29.0032 21.8417C29.0382 21.6716 29.1879 21.5495 29.3617 21.5495H32.2627V18.4507H29.3617C29.1879 18.4507 29.0382 18.3286 29.0032 18.1584C28.7686 17.018 28.3215 15.9451 27.6743 14.9695C27.5779 14.8241 27.5975 14.6309 27.7211 14.5077L29.7716 12.4669L27.5689 10.2743L25.5159 12.3177C25.3932 12.4398 25.2015 12.4593 25.0566 12.3641C24.0757 11.7195 22.9975 11.2746 21.8516 11.0416C21.6811 11.007 21.5585 10.857 21.5585 10.683V7.79688H18.4417V10.683C18.4417 10.857 18.3192 11.007 18.1486 11.0416C17.0029 11.2745 15.9243 11.7195 14.9428 12.3642C14.798 12.4591 14.6063 12.4399 14.4836 12.3176L12.4311 10.2743L10.2284 12.4669L12.2789 14.5077C12.4025 14.6309 12.4221 14.8242 12.3256 14.9697C11.6789 15.9438 11.2318 17.0166 10.9969 18.1585C10.9618 18.3287 10.8121 18.4508 10.6384 18.4508H7.7373V21.5499H10.6383C10.8121 21.5499 10.9618 21.672 10.9968 21.8421C11.2314 22.982 11.6785 24.055 12.3257 25.0312C12.4221 25.1767 12.4025 25.37 12.2788 25.493L10.2283 27.5333L12.4311 29.7258L14.4841 27.6824C14.607 27.5602 14.7987 27.5408 14.9435 27.636C15.9229 28.2801 17.0014 28.7252 18.1487 28.9591C18.3192 28.9937 18.4416 29.1437 18.4416 29.3177V32.2034H21.5584V29.3177C21.5584 29.1437 21.6808 28.9938 21.8514 28.9591C22.9987 28.7252 24.077 28.2802 25.0564 27.636C25.2014 27.5407 25.393 27.5602 25.5158 27.6824L27.5688 29.7258L29.7715 27.5333L27.7212 25.493C27.5975 25.37 27.5778 25.1767 27.6743 25.0312C28.3216 24.055 28.7686 22.9819 29.0032 21.8417ZM20.0004 25.953C16.7034 25.953 14.0211 23.2827 14.0211 20.0005C14.0211 16.718 16.7034 14.0477 20.0004 14.0477C23.2972 14.0477 25.9794 16.718 25.9794 20.0005C25.9794 23.2828 23.2972 25.953 20.0004 25.953Z" fill="#FF5800"/>
<path d="M20.3379 20.4336V22.2196C20.568 22.1696 20.7557 22.0605 20.8997 21.8923C21.0452 21.7241 21.1171 21.5263 21.1171 21.2979C21.1171 21.0951 21.0561 20.9195 20.9338 20.7727C20.8135 20.625 20.6147 20.5131 20.3379 20.4336Z" fill="#FF5800"/>
<path d="M19.2462 17.6762C19.1412 17.8222 19.0898 17.9824 19.0898 18.1586C19.0898 18.3189 19.1366 18.4683 19.232 18.607C19.3273 18.7438 19.4746 18.856 19.6716 18.9399V17.3613C19.4918 17.4251 19.3506 17.5296 19.2462 17.6762Z" fill="#FF5800"/>
<path d="M20.001 14.7793C17.1077 14.7793 14.7539 17.1213 14.7539 20C14.7539 22.8786 17.1077 25.2205 20.001 25.2205C22.8942 25.2205 25.248 22.8785 25.248 20C25.248 17.1213 22.8942 14.7793 20.001 14.7793ZM21.7401 22.5242C21.4038 22.901 20.9379 23.1345 20.3386 23.2277V24.078H19.6723V23.2373C19.1464 23.1733 18.7192 22.9801 18.3892 22.6549C18.0591 22.3293 17.8497 21.8685 17.7572 21.2752L18.9493 21.1354C18.998 21.378 19.0905 21.5865 19.2245 21.7628C19.3592 21.9384 19.5078 22.0645 19.6722 22.1441V20.237C19.0761 20.067 18.6398 19.8102 18.363 19.4659C18.0843 19.1202 17.945 18.7033 17.945 18.2111C17.945 17.7128 18.1031 17.2938 18.4177 16.9563C18.7317 16.6164 19.1497 16.4221 19.6722 16.3704V15.9221H20.3385V16.3704C20.8265 16.4284 21.2143 16.5932 21.5043 16.866C21.7922 17.1383 21.9764 17.5024 22.0563 17.9587L20.8923 18.1082C20.8202 17.7502 20.6359 17.5075 20.3385 17.3798V19.1596C21.0755 19.3556 21.5773 19.6124 21.8435 19.9256C22.1107 20.2399 22.2443 20.6434 22.2443 21.1355C22.2443 21.6848 22.0763 22.1473 21.7401 22.5242Z" fill="#FF5800"/>
<path d="M18.6235 36.3934C10.9269 35.7622 4.80197 30.0013 3.66025 22.5067L5.0372 24.0056C5.10939 24.0842 5.20798 24.124 5.30689 24.124C5.39541 24.124 5.48416 24.0922 5.55447 24.0275C5.7033 23.8907 5.71306 23.6593 5.57634 23.5104L3.48994 21.2393C3.4258 21.108 3.28619 21.0226 3.13142 21.0343C2.94103 21.0501 2.79861 21.2093 2.79744 21.3968C2.79681 21.4065 2.79689 21.4161 2.79697 21.4257C2.79705 21.427 2.79681 21.4282 2.79689 21.4294C2.79713 21.4315 2.79736 21.4336 2.79752 21.4357C2.79806 21.4536 2.79931 21.4711 2.80244 21.4887C3.14931 25.5051 4.92025 29.2893 7.79447 32.15C10.6824 35.0243 14.507 36.7905 18.5636 37.1232C18.5738 37.1241 18.5839 37.1245 18.5939 37.1245C18.7825 37.1245 18.9427 36.9797 18.9585 36.7883C18.9749 36.5866 18.8249 36.4099 18.6235 36.3934Z" fill="#FF5800"/>
<path d="M36.8688 21.0343C36.6678 21.0186 36.4904 21.1675 36.4737 21.3689C35.8078 29.412 29.4583 35.7307 21.3762 36.3936C21.1746 36.41 21.0248 36.5868 21.0413 36.7882C21.0569 36.9796 21.2171 37.1245 21.4057 37.1245C21.4157 37.1245 21.4258 37.1241 21.436 37.1232C25.493 36.7905 29.3178 35.0243 32.2057 32.15C35.0942 29.2753 36.8689 25.468 37.2035 21.4294C37.22 21.2279 37.0703 21.0511 36.8688 21.0343Z" fill="#FF5800"/>
<path d="M3.13177 18.9651C3.14208 18.9659 3.15232 18.9664 3.1624 18.9664C3.35091 18.9664 3.51099 18.8217 3.52677 18.6306C4.19279 10.5877 10.542 4.26895 18.6237 3.60598C18.8253 3.5895 18.9752 3.4127 18.9587 3.21121C18.9422 3.00973 18.7651 2.85942 18.564 2.87629C14.5073 3.20911 10.6827 4.97535 7.79482 7.84973C4.90638 10.7244 3.13169 14.5317 2.79716 18.5701C2.78052 18.7716 2.93029 18.9484 3.13177 18.9651Z" fill="#FF5800"/>
<path d="M21.3763 3.60597C29.0674 4.23683 35.1892 9.9898 36.3374 17.4763L34.9659 15.9502C34.8308 15.7999 34.5994 15.7875 34.4489 15.9226C34.2985 16.0577 34.2863 16.2892 34.4213 16.4395L36.5126 18.7665C36.5737 18.8862 36.6979 18.9664 36.8381 18.9664C36.8484 18.9664 36.8586 18.966 36.8688 18.9652C37.0566 18.9496 37.1976 18.7946 37.2027 18.6107C37.2035 18.6005 37.2033 18.5905 37.2032 18.5803C37.2031 18.5769 37.2038 18.5736 37.2035 18.5701C37.2031 18.5661 37.2027 18.5621 37.2023 18.5582C37.2014 18.5458 37.2008 18.5335 37.1988 18.5213C36.8542 14.501 35.0824 10.7128 32.2057 7.84972C29.3178 4.97534 25.493 3.20909 21.436 2.87628C21.2335 2.85949 21.0578 3.00972 21.0413 3.2112C21.0249 3.41277 21.1747 3.58949 21.3763 3.60597Z" fill="#FF5800"/>
</svg>
