<svg width="45" height="45" viewBox="0 0 45 45" fill="none" xmlns="http://www.w3.org/2000/svg">
<path d="M13.2891 24.1172C13.2187 24.0469 13.0781 23.9766 13.0078 23.9062C12.7969 23.7656 12.5859 23.6953 12.3047 23.6953C11.9531 23.6953 11.6016 23.6953 11.25 23.6953C11.1797 23.6953 11.1797 23.6953 11.1094 23.6953C10.8984 23.6953 10.7578 23.6953 10.5469 23.8359C10.4062 23.9063 10.1953 23.9766 10.125 24.1172C10.0547 24.1875 9.98438 24.3281 9.91406 24.3984C9.77344 24.6094 9.70312 24.8203 9.70312 25.1016C9.70312 25.4531 9.70312 25.8047 9.70312 26.1562C9.70312 26.2266 9.70312 26.2266 9.70312 26.2969C9.70312 26.5078 9.70312 26.6484 9.84375 26.8594C9.91406 27 9.98437 27.2109 10.125 27.2812C10.1953 27.3516 10.3359 27.4219 10.4062 27.4922C10.6172 27.6328 10.8281 27.7031 11.1094 27.7031C11.4609 27.7031 11.8125 27.7031 12.1641 27.7031C12.2344 27.7031 12.2344 27.7031 12.3047 27.7031C12.4453 27.7031 12.5156 27.7031 12.6562 27.6328C12.6562 27.6328 12.6563 27.6328 12.7266 27.6328C12.8672 27.5625 13.0078 27.5625 13.0781 27.4922C13.1484 27.4219 13.2891 27.3516 13.3594 27.2812C13.4297 27.2109 13.5 27.1406 13.5703 27C13.5703 26.9297 13.6406 26.8594 13.6406 26.8594C13.6406 26.7891 13.7109 26.7188 13.7109 26.6484C13.7109 26.5078 13.7812 26.4375 13.7812 26.2969C13.7812 25.9453 13.7812 25.5938 13.7812 25.2422C13.7812 25.1719 13.7812 25.1719 13.7812 25.1016C13.7812 24.8906 13.7812 24.75 13.6406 24.5391C13.5 24.3984 13.4297 24.1875 13.2891 24.1172Z" fill="#FF5800"/>
<path d="M18.9844 24.1172C18.9141 24.0469 18.7734 23.9766 18.7031 23.9062C18.4922 23.7656 18.2813 23.6953 18 23.6953C17.6484 23.6953 17.2969 23.6953 16.9453 23.6953C16.875 23.6953 16.875 23.6953 16.8047 23.6953C16.5937 23.6953 16.4531 23.6953 16.2422 23.8359C16.1016 23.9063 15.8906 23.9766 15.8203 24.1172C15.75 24.1875 15.6797 24.3281 15.6094 24.3984C15.4688 24.6094 15.3984 24.8203 15.3984 25.1016C15.3984 25.4531 15.3984 25.8047 15.3984 26.1562C15.3984 26.2266 15.3984 26.2266 15.3984 26.2969C15.3984 26.5078 15.3984 26.6484 15.5391 26.8594C15.6094 27 15.6797 27.2109 15.8203 27.2812C15.8906 27.3516 16.0312 27.4219 16.1016 27.4922C16.3125 27.6328 16.5234 27.7031 16.8047 27.7031C17.1562 27.7031 17.5078 27.7031 17.8594 27.7031C17.9297 27.7031 17.9297 27.7031 18 27.7031C18.1406 27.7031 18.2109 27.7031 18.3516 27.6328C18.3516 27.6328 18.3516 27.6328 18.4219 27.6328C18.5625 27.5625 18.7031 27.5625 18.7734 27.4922C18.8438 27.4219 18.9844 27.3516 19.0547 27.2812C19.125 27.2109 19.1953 27.1406 19.2656 27C19.2656 26.9297 19.3359 26.8594 19.3359 26.8594C19.3359 26.7891 19.4062 26.7188 19.4062 26.6484C19.4062 26.5078 19.4766 26.4375 19.4766 26.2969C19.4766 25.9453 19.4766 25.5938 19.4766 25.2422C19.4766 25.1719 19.4766 25.1719 19.4766 25.1016C19.4766 24.8906 19.4766 24.75 19.3359 24.5391C19.1953 24.3984 19.125 24.1875 18.9844 24.1172Z" fill="#FF5800"/>
<path d="M29.0391 29.0391C28.9687 28.9687 28.8281 28.8984 28.7578 28.8281C28.5469 28.6875 28.3359 28.6172 28.0547 28.6172C27.7031 28.6172 27.3516 28.6172 27 28.6172C26.9297 28.6172 26.9297 28.6172 26.8594 28.6172C26.6484 28.6172 26.5078 28.6172 26.2969 28.7578C26.1563 28.8281 25.9453 28.8984 25.875 29.0391C25.8047 29.1094 25.7344 29.25 25.6641 29.3203C25.5234 29.5312 25.4531 29.7422 25.4531 30.0234C25.4531 30.375 25.4531 30.7266 25.4531 31.0781C25.4531 31.1484 25.4531 31.1484 25.4531 31.2188C25.4531 31.4297 25.4531 31.5703 25.5938 31.7812C25.6641 31.9219 25.7344 32.1328 25.875 32.2031C25.9453 32.2734 26.0859 32.3437 26.1562 32.4141C26.3672 32.5547 26.5781 32.625 26.8594 32.625C27.2109 32.625 27.5625 32.625 27.9141 32.625C27.9844 32.625 27.9844 32.625 28.0547 32.625C28.1953 32.625 28.2656 32.625 28.4063 32.5547C28.4063 32.5547 28.4062 32.5547 28.4766 32.5547C28.6172 32.4844 28.7578 32.4844 28.8281 32.4141C28.8984 32.3437 29.0391 32.2734 29.1094 32.2031C29.1797 32.1328 29.25 32.0625 29.3203 31.9219C29.3203 31.8516 29.3906 31.7812 29.3906 31.7812C29.3906 31.7109 29.4609 31.6406 29.4609 31.5703C29.4609 31.4297 29.5312 31.3594 29.5312 31.2188C29.5312 30.8672 29.5312 30.5156 29.5312 30.1641C29.5312 30.0938 29.5312 30.0938 29.5312 30.0234C29.5312 29.8125 29.5312 29.6719 29.3906 29.4609C29.25 29.3203 29.1797 29.1797 29.0391 29.0391Z" fill="#FF5800"/>
<path d="M35.0156 29.0391C34.9453 28.9687 34.8047 28.8984 34.7344 28.8281C34.5234 28.6875 34.3125 28.6172 34.0313 28.6172C33.6797 28.6172 33.3281 28.6172 32.9766 28.6172C32.9063 28.6172 32.9062 28.6172 32.8359 28.6172C32.625 28.6172 32.4844 28.6172 32.2734 28.7578C32.1328 28.8281 31.9219 28.8984 31.8516 29.0391C31.7812 29.1094 31.7109 29.25 31.6406 29.3203C31.5 29.5312 31.4297 29.7422 31.4297 30.0234C31.4297 30.375 31.4297 30.7266 31.4297 31.0781C31.4297 31.1484 31.4297 31.1484 31.4297 31.2188C31.4297 31.4297 31.4297 31.5703 31.5703 31.7812C31.6406 31.9219 31.7109 32.1328 31.8516 32.2031C31.9219 32.2734 32.0625 32.3437 32.1328 32.4141C32.3438 32.5547 32.5547 32.625 32.8359 32.625C33.1875 32.625 33.5391 32.625 33.8906 32.625C33.9609 32.625 33.9609 32.625 34.0313 32.625C34.1719 32.625 34.2422 32.625 34.3828 32.5547C34.3828 32.5547 34.3828 32.5547 34.4531 32.5547C34.5937 32.4844 34.7344 32.4844 34.8047 32.4141C34.875 32.3437 35.0156 32.2734 35.0859 32.2031C35.1563 32.1328 35.2266 32.0625 35.2969 31.9219C35.2969 31.8516 35.3672 31.7812 35.3672 31.7812C35.3672 31.7109 35.4375 31.6406 35.4375 31.5703C35.4375 31.4297 35.5078 31.3594 35.5078 31.2188C35.5078 30.8672 35.5078 30.5156 35.5078 30.1641C35.5078 30.0938 35.5078 30.0938 35.5078 30.0234C35.5078 29.8125 35.5078 29.6719 35.3672 29.4609C35.2266 29.3203 35.1562 29.1797 35.0156 29.0391Z" fill="#FF5800"/>
<path d="M35.0156 34.0313C34.9453 33.9609 34.8047 33.8906 34.7344 33.8203C34.5234 33.6797 34.3125 33.6094 34.0313 33.6094C33.6797 33.6094 33.3281 33.6094 32.9766 33.6094C32.9063 33.6094 32.9062 33.6094 32.8359 33.6094C32.625 33.6094 32.4844 33.6094 32.2734 33.75C32.1328 33.8203 31.9219 33.8906 31.8516 34.0313C31.7812 34.1016 31.7109 34.2422 31.6406 34.3125C31.5 34.5234 31.4297 34.7344 31.4297 35.0156C31.4297 35.3672 31.4297 35.7188 31.4297 36.0703C31.4297 36.1406 31.4297 36.1406 31.4297 36.2109C31.4297 36.4219 31.4297 36.5625 31.5703 36.7734C31.6406 36.9141 31.7109 37.125 31.8516 37.1953C31.9219 37.2656 32.0625 37.3359 32.1328 37.4063C32.3438 37.5469 32.5547 37.6172 32.8359 37.6172C33.1875 37.6172 33.5391 37.6172 33.8906 37.6172C33.9609 37.6172 33.9609 37.6172 34.0313 37.6172C34.1719 37.6172 34.2422 37.6172 34.3828 37.5469C34.3828 37.5469 34.3828 37.5469 34.4531 37.5469C34.5937 37.4766 34.7344 37.4766 34.8047 37.4063C34.875 37.3359 35.0156 37.2656 35.0859 37.1953C35.1563 37.125 35.2266 37.0547 35.2969 36.9141C35.2969 36.8438 35.3672 36.7734 35.3672 36.7734C35.3672 36.7031 35.4375 36.6328 35.4375 36.5625C35.4375 36.4219 35.5078 36.3516 35.5078 36.2109C35.5078 35.8594 35.5078 35.5078 35.5078 35.1563C35.5078 35.0859 35.5078 35.0859 35.5078 35.0156C35.5078 34.8047 35.5078 34.6641 35.3672 34.4531C35.2266 34.3125 35.1562 34.1719 35.0156 34.0313Z" fill="#FF5800"/>
<path d="M28.9688 33.8906C28.8984 33.8203 28.7578 33.75 28.6875 33.6797C28.4766 33.5391 28.2656 33.4688 27.9844 33.4688C27.6328 33.4688 27.2813 33.4688 26.9297 33.4688C26.8594 33.4688 26.8594 33.4688 26.7891 33.4688C26.5781 33.4688 26.4375 33.4688 26.2266 33.6094C26.0859 33.6797 25.875 33.75 25.8047 33.8906C25.7344 33.9609 25.6641 34.1016 25.5938 34.1719C25.4531 34.3828 25.3828 34.5938 25.3828 34.875C25.3828 35.2266 25.3828 35.5781 25.3828 35.9297C25.3828 36 25.3828 36 25.3828 36.0703C25.3828 36.2813 25.3828 36.4219 25.5234 36.6328C25.5938 36.7734 25.6641 36.9844 25.8047 37.0547C25.875 37.125 26.0156 37.1953 26.0859 37.2656C26.2969 37.4063 26.5078 37.4766 26.7891 37.4766C27.1406 37.4766 27.4922 37.4766 27.8437 37.4766C27.9141 37.4766 27.9141 37.4766 27.9844 37.4766C28.125 37.4766 28.1953 37.4766 28.3359 37.4063C28.3359 37.4063 28.3359 37.4063 28.4063 37.4063C28.5469 37.3359 28.6875 37.3359 28.7578 37.2656C28.8281 37.1953 28.9688 37.125 29.0391 37.0547C29.1094 36.9844 29.1797 36.9141 29.25 36.7734C29.25 36.7031 29.3203 36.6328 29.3203 36.6328C29.3203 36.5625 29.3906 36.4922 29.3906 36.4219C29.3906 36.2813 29.4609 36.2109 29.4609 36.0703C29.4609 35.7188 29.4609 35.3672 29.4609 35.0156C29.4609 34.9453 29.4609 34.9453 29.4609 34.875C29.4609 34.6641 29.4609 34.5234 29.3203 34.3125C29.1797 34.1719 29.1094 34.0313 28.9688 33.8906Z" fill="#FF5800"/>
<path d="M26.0859 18.7031C26.1562 18.7734 26.2969 18.8437 26.3672 18.9141C26.5781 19.0547 26.7891 19.125 27.0703 19.125C27.4219 19.125 27.7734 19.125 28.125 19.125C28.1953 19.125 28.1953 19.125 28.2656 19.125C28.4063 19.125 28.4766 19.125 28.6172 19.0547C28.6172 19.0547 28.6172 19.0547 28.6875 19.0547C28.8281 18.9844 28.9688 18.9844 29.0391 18.9141C29.1094 18.8437 29.25 18.7734 29.3203 18.7031C29.3906 18.6328 29.4609 18.5625 29.5313 18.4219C29.5313 18.3516 29.6016 18.2812 29.6016 18.2812C29.6016 18.2109 29.6719 18.1406 29.6719 18.0703C29.6719 17.9297 29.7422 17.8594 29.7422 17.7188C29.7422 17.3672 29.7422 17.0156 29.7422 16.6641C29.7422 16.5938 29.7422 16.5938 29.7422 16.5234C29.7422 16.3125 29.7422 16.1719 29.6016 15.9609C29.5312 15.8203 29.4609 15.6094 29.3203 15.5391C29.25 15.4688 29.1094 15.3984 29.0391 15.3281C28.8281 15.1875 28.6172 15.1172 28.3359 15.1172C27.9844 15.1172 27.6328 15.1172 27.2813 15.1172C27.2109 15.1172 27.2109 15.1172 27.1406 15.1172C26.9297 15.1172 26.7891 15.1172 26.5781 15.2578C26.4375 15.3281 26.2266 15.3984 26.1563 15.5391C26.0859 15.6094 26.0156 15.75 25.9453 15.8203C25.8047 16.0312 25.7344 16.2422 25.7344 16.5234C25.7344 16.875 25.7344 17.2266 25.7344 17.5781C25.7344 17.6484 25.7344 17.6484 25.7344 17.7188C25.7344 17.9297 25.7344 18.0703 25.875 18.2812C25.875 18.4219 25.9453 18.5625 26.0859 18.7031Z" fill="#FF5800"/>
<path d="M20.25 18.7031C20.3203 18.7734 20.4609 18.8437 20.5313 18.9141C20.7422 19.0547 20.9531 19.125 21.2344 19.125C21.5859 19.125 21.9375 19.125 22.2891 19.125C22.3594 19.125 22.3594 19.125 22.4297 19.125C22.5703 19.125 22.6406 19.125 22.7813 19.0547C22.7813 19.0547 22.7813 19.0547 22.8516 19.0547C22.9922 18.9844 23.1328 18.9844 23.2031 18.9141C23.2734 18.8437 23.4141 18.7734 23.4844 18.7031C23.5547 18.6328 23.625 18.5625 23.6953 18.4219C23.6953 18.3516 23.7656 18.2812 23.7656 18.2812C23.7656 18.2109 23.8359 18.1406 23.8359 18.0703C23.8359 17.9297 23.9063 17.8594 23.9063 17.7188C23.9063 17.3672 23.9063 17.0156 23.9063 16.6641C23.9063 16.5938 23.9063 16.5938 23.9063 16.5234C23.9063 16.3125 23.9062 16.1719 23.7656 15.9609C23.6953 15.8203 23.625 15.6094 23.4844 15.5391C23.4141 15.4688 23.2734 15.3984 23.2031 15.3281C22.9922 15.1875 22.7813 15.1172 22.5 15.1172C22.1484 15.1172 21.7969 15.1172 21.4453 15.1172C21.375 15.1172 21.375 15.1172 21.3047 15.1172C21.0938 15.1172 20.9531 15.1172 20.7422 15.2578C20.6016 15.3281 20.3906 15.3984 20.3203 15.5391C20.25 15.6094 20.1797 15.75 20.1094 15.8203C19.9688 16.0312 19.8984 16.2422 19.8984 16.5234C19.8984 16.875 19.8984 17.2266 19.8984 17.5781C19.8984 17.6484 19.8984 17.6484 19.8984 17.7188C19.8984 17.9297 19.8984 18.0703 20.0391 18.2812C19.9688 18.4219 20.1094 18.6328 20.25 18.7031Z" fill="#FF5800"/>
<path d="M18.9844 29.0391C18.9141 28.9687 18.7734 28.8984 18.7031 28.8281C18.4922 28.6875 18.2813 28.6172 18 28.6172C17.6484 28.6172 17.2969 28.6172 16.9453 28.6172C16.875 28.6172 16.875 28.6172 16.8047 28.6172C16.5937 28.6172 16.4531 28.6172 16.2422 28.7578C16.1016 28.8281 15.8906 28.8984 15.8203 29.0391C15.75 29.1094 15.6797 29.25 15.6094 29.3203C15.4688 29.5312 15.3984 29.7422 15.3984 30.0234C15.3984 30.375 15.3984 30.7266 15.3984 31.0781C15.3984 31.1484 15.3984 31.1484 15.3984 31.2188C15.3984 31.4297 15.3984 31.5703 15.5391 31.7812C15.6094 31.9219 15.6797 32.1328 15.8203 32.2031C15.8906 32.2734 16.0312 32.3437 16.1016 32.4141C16.3125 32.5547 16.5234 32.625 16.8047 32.625C17.1562 32.625 17.5078 32.625 17.8594 32.625C17.9297 32.625 17.9297 32.625 18 32.625C18.1406 32.625 18.2109 32.625 18.3516 32.5547C18.3516 32.5547 18.3516 32.5547 18.4219 32.5547C18.5625 32.4844 18.7031 32.4844 18.7734 32.4141C18.8438 32.3437 18.9844 32.2734 19.0547 32.2031C19.125 32.1328 19.1953 32.0625 19.2656 31.9219C19.2656 31.8516 19.3359 31.7812 19.3359 31.7812C19.3359 31.7109 19.4062 31.6406 19.4062 31.5703C19.4062 31.4297 19.4766 31.3594 19.4766 31.2188C19.4766 30.8672 19.4766 30.5156 19.4766 30.1641C19.4766 30.0938 19.4766 30.0938 19.4766 30.0234C19.4766 29.8125 19.4766 29.6719 19.3359 29.4609C19.1953 29.3203 19.125 29.1797 18.9844 29.0391Z" fill="#FF5800"/>
<path d="M18.9141 34.0313C18.8438 33.9609 18.7031 33.8906 18.6328 33.8203C18.4219 33.6797 18.2109 33.6094 17.9297 33.6094C17.5781 33.6094 17.2266 33.6094 16.875 33.6094C16.8047 33.6094 16.8047 33.6094 16.7344 33.6094C16.5234 33.6094 16.3828 33.6094 16.1719 33.75C16.0313 33.8203 15.8203 33.8906 15.75 34.0313C15.6797 34.1016 15.6094 34.2422 15.5391 34.3125C15.3984 34.5234 15.3281 34.7344 15.3281 35.0156C15.3281 35.3672 15.3281 35.7188 15.3281 36.0703C15.3281 36.1406 15.3281 36.1406 15.3281 36.2109C15.3281 36.4219 15.3281 36.5625 15.4688 36.7734C15.5391 36.9141 15.6094 37.125 15.75 37.1953C15.8203 37.2656 15.9609 37.3359 16.0312 37.4063C16.2422 37.5469 16.4531 37.6172 16.7344 37.6172C17.0859 37.6172 17.4375 37.6172 17.7891 37.6172C17.8594 37.6172 17.8594 37.6172 17.9297 37.6172C18.0703 37.6172 18.1406 37.6172 18.2813 37.5469C18.2813 37.5469 18.2813 37.5469 18.3516 37.5469C18.4922 37.4766 18.6328 37.4766 18.7031 37.4063C18.7734 37.3359 18.9141 37.2656 18.9844 37.1953C19.0547 37.125 19.125 37.0547 19.1953 36.9141C19.1953 36.8438 19.2656 36.7734 19.2656 36.7734C19.2656 36.7031 19.3359 36.6328 19.3359 36.5625C19.3359 36.4219 19.4063 36.3516 19.4063 36.2109C19.4063 35.8594 19.4063 35.5078 19.4063 35.1563C19.4063 35.0859 19.4063 35.0859 19.4063 35.0156C19.4063 34.8047 19.4062 34.6641 19.2656 34.4531C19.125 34.3125 19.0547 34.1719 18.9141 34.0313Z" fill="#FF5800"/>
<path d="M13.2891 34.1016C13.2187 34.0312 13.0781 33.9609 13.0078 33.8906C12.7969 33.75 12.5859 33.6797 12.3047 33.6797C11.9531 33.6797 11.6016 33.6797 11.25 33.6797C11.1797 33.6797 11.1797 33.6797 11.1094 33.6797C10.8984 33.6797 10.7578 33.6797 10.5469 33.8203C10.4062 33.8906 10.1953 33.9609 10.125 34.1016C10.0547 34.1719 9.98438 34.3125 9.91406 34.3828C9.77344 34.5938 9.70312 34.8047 9.70312 35.0859C9.70312 35.4375 9.70312 35.7891 9.70312 36.1406C9.70312 36.2109 9.70312 36.2109 9.70312 36.2812C9.70312 36.4922 9.70312 36.6328 9.84375 36.8438C9.91406 36.9844 9.98437 37.1953 10.125 37.2656C10.1953 37.3359 10.3359 37.4062 10.4062 37.4766C10.6172 37.6172 10.8281 37.6875 11.1094 37.6875C11.4609 37.6875 11.8125 37.6875 12.1641 37.6875C12.2344 37.6875 12.2344 37.6875 12.3047 37.6875C12.4453 37.6875 12.5156 37.6875 12.6562 37.6172C12.6562 37.6172 12.6563 37.6172 12.7266 37.6172C12.8672 37.5469 13.0078 37.5469 13.0781 37.4766C13.1484 37.4062 13.2891 37.3359 13.3594 37.2656C13.4297 37.1953 13.5 37.125 13.5703 36.9844C13.5703 36.9141 13.6406 36.8438 13.6406 36.8438C13.6406 36.7734 13.7109 36.7031 13.7109 36.6328C13.7109 36.4922 13.7812 36.4219 13.7812 36.2812C13.7812 35.9297 13.7812 35.5781 13.7812 35.2266C13.7812 35.1562 13.7812 35.1563 13.7812 35.0859C13.7812 34.875 13.7812 34.7344 13.6406 34.5234C13.5 34.3828 13.4297 34.1719 13.2891 34.1016Z" fill="#FF5800"/>
<path d="M13.2891 29.0391C13.2187 28.9687 13.0781 28.8984 13.0078 28.8281C12.7969 28.6875 12.5859 28.6172 12.3047 28.6172C11.9531 28.6172 11.6016 28.6172 11.25 28.6172C11.1797 28.6172 11.1797 28.6172 11.1094 28.6172C10.8984 28.6172 10.7578 28.6172 10.5469 28.7578C10.4062 28.8281 10.1953 28.8984 10.125 29.0391C10.0547 29.1094 9.98438 29.25 9.91406 29.3203C9.77344 29.5312 9.70312 29.7422 9.70312 30.0234C9.70312 30.375 9.70312 30.7266 9.70312 31.0781C9.70312 31.1484 9.70312 31.1484 9.70312 31.2188C9.70312 31.4297 9.70312 31.5703 9.84375 31.7812C9.91406 31.9219 9.98437 32.1328 10.125 32.2031C10.1953 32.2734 10.3359 32.3437 10.4062 32.4141C10.6172 32.5547 10.8281 32.625 11.1094 32.625C11.4609 32.625 11.8125 32.625 12.1641 32.625C12.2344 32.625 12.2344 32.625 12.3047 32.625C12.4453 32.625 12.5156 32.625 12.6562 32.5547C12.6562 32.5547 12.6563 32.5547 12.7266 32.5547C12.8672 32.4844 13.0078 32.4844 13.0781 32.4141C13.1484 32.3437 13.2891 32.2734 13.3594 32.2031C13.4297 32.1328 13.5 32.0625 13.5703 31.9219C13.5703 31.8516 13.6406 31.7812 13.6406 31.7812C13.6406 31.7109 13.7109 31.6406 13.7109 31.5703C13.7109 31.4297 13.7812 31.3594 13.7812 31.2188C13.7812 30.8672 13.7812 30.5156 13.7812 30.1641C13.7812 30.0938 13.7812 30.0938 13.7812 30.0234C13.7812 29.8125 13.7812 29.6719 13.6406 29.4609C13.5 29.3203 13.4297 29.1797 13.2891 29.0391Z" fill="#FF5800"/>
<path d="M40.3594 38.2496C40.1484 38.2496 40.0078 38.2496 39.7969 38.2496C39.7969 35.2964 39.7969 32.3433 39.7969 29.4605C39.7969 28.3355 39.8672 27.1402 39.7969 26.0152C39.7266 24.6089 38.8828 23.3433 37.4766 22.9917C36.9844 22.8511 36.4922 22.9214 36 22.9214C35.3672 22.9214 34.8047 22.9214 34.1719 22.9214C34.1719 20.8121 34.1719 18.7027 34.1719 16.5933C34.1719 15.4683 34.1016 14.4839 33.2578 13.5699C32.4844 12.7261 31.6406 11.9527 30.7969 11.1089C29.6719 9.98393 28.6172 8.92925 27.4922 7.80425C26.5781 6.89018 25.7344 5.76518 24.2578 6.11675C23.3438 6.32768 22.5 7.45268 21.7969 8.15581C20.6719 9.28081 19.5469 10.4058 18.4219 11.5308C17.6484 12.3042 16.7344 13.0777 16.0312 13.9214C15.6094 14.3433 15.4688 14.9058 15.3984 15.5386C13.4297 14.6949 11.8125 16.9449 10.6172 18.1402C9.14063 19.6167 7.66406 21.0933 6.1875 22.5699C5.55469 23.2027 5.0625 23.8355 5.0625 24.7496C5.0625 25.1714 5.0625 25.6636 5.0625 26.0855C5.0625 30.0933 5.0625 34.1714 5.0625 38.1792V38.2496C4.85156 38.2496 4.57031 38.2496 4.35938 38.2496C2.53125 38.2496 2.53125 41.0621 4.35938 41.0621C8.4375 41.0621 12.4453 41.0621 16.5234 41.0621C22.9922 41.0621 29.4609 41.0621 35.8594 41.0621C37.3359 41.0621 38.8828 41.0621 40.3594 41.0621C42.1875 41.0621 42.1875 38.2496 40.3594 38.2496ZM25.1719 8.78862C25.3125 8.57768 25.4531 8.71831 25.1719 8.78862V8.78862ZM18.6328 15.3277C19.0547 14.9058 19.4062 14.5542 19.8281 14.1324C20.8828 13.0777 21.9375 12.023 22.9922 10.9683C23.4141 10.5464 23.9062 10.0542 24.3281 9.63237C24.4687 9.49175 24.6797 9.35112 24.8203 9.14018C25.0312 9.35112 25.2422 9.49175 25.3828 9.63237C26.3672 10.6167 27.4219 11.6714 28.4063 12.6558C29.25 13.4996 30.1641 14.4136 31.0078 15.2574C31.0781 15.3277 31.2188 15.398 31.2891 15.5386C31.3594 15.6089 31.3594 15.6089 31.3594 15.6089C31.4297 15.8199 31.3594 16.1714 31.3594 16.3824C31.3594 18.5621 31.3594 20.7417 31.3594 22.9214C29.4609 22.9214 27.5625 22.9214 25.6641 22.9214C24.8203 22.9214 23.9766 22.9214 23.2734 23.1324C23.2031 23.0621 23.2031 22.9917 23.1328 22.9214C21.9375 21.6558 20.6719 20.4605 19.4062 19.1949C19.0547 18.8433 18.6328 18.4214 18.2812 18.0699C18.2812 17.648 18.2812 17.2261 18.2812 16.8042C18.2812 16.523 18.2812 16.1714 18.2812 15.8902C18.2812 15.8902 18.2812 15.8902 18.2812 15.8199C18.4219 15.6089 18.5625 15.398 18.6328 15.3277ZM21.0234 24.7496C20.9531 24.6089 21.0938 24.6089 21.0234 24.7496V24.7496ZM7.875 24.8199C7.875 24.6792 7.94531 24.7496 7.875 24.8199V24.8199ZM8.85938 38.2496C8.50781 38.2496 8.22656 38.2496 7.875 38.2496V38.1792C7.875 34.8042 7.875 31.4292 7.875 27.9839C7.875 27.1402 7.875 26.3667 7.875 25.523C7.875 25.3121 7.875 25.1011 7.875 24.8902V24.8199C8.22656 24.5386 8.57813 24.1167 8.85938 23.8355C9.63281 23.0621 10.3359 22.3589 11.1094 21.5855C11.8125 20.8824 12.5859 20.1089 13.2891 19.4058C13.5703 19.1246 13.8516 18.8433 14.1328 18.5621C14.2031 18.4917 14.3438 18.3511 14.4844 18.2105C14.5547 18.2808 14.625 18.3511 14.6953 18.3511C15.3281 18.9839 15.9609 19.6167 16.6641 20.3199C18.0703 21.7261 19.4062 23.0621 20.8125 24.4683C20.8828 24.5386 20.9531 24.6089 21.0234 24.6792C21.0234 24.6792 21.0234 24.6792 21.0234 24.7496C20.9531 25.1714 20.9531 25.5933 21.0234 26.0855C20.9531 26.7886 21.0234 27.5621 21.0234 28.1949C21.0234 31.4996 21.0234 34.8042 21.0234 38.1792V38.2496C16.9453 38.2496 12.9375 38.2496 8.85938 38.2496ZM28.1953 38.2496C26.7187 38.2496 25.3125 38.2496 23.8359 38.2496V38.1792C23.8359 35.5074 23.8359 32.8355 23.8359 30.1636C23.8359 29.1792 23.8359 28.1949 23.8359 27.2808C23.8359 26.8589 23.8359 26.4371 23.8359 25.9449C23.9766 25.523 24.4688 25.6636 24.9609 25.6636C28.2656 25.6636 31.5703 25.6636 34.875 25.6636C35.2969 25.6636 36.7734 25.3824 36.9141 25.9449C36.9844 26.2261 36.9141 26.5777 36.9141 26.7886C36.9141 27.4917 36.9141 28.1246 36.9141 28.8277C36.9141 31.9917 36.9141 35.0855 36.9141 38.2496C34.0312 38.2496 31.1484 38.2496 28.1953 38.2496Z" fill="#FF5800"/>
</svg>
