<svg width="44" height="44" viewBox="0 0 44 44" fill="none" xmlns="http://www.w3.org/2000/svg">
<path d="M41.519 2.7699C41.4467 2.75859 41.3738 2.75199 41.3007 2.75013H2.71474C1.97654 2.73982 1.38529 3.34138 1.37498 4.10365C1.37165 4.18436 1.37829 4.26518 1.39474 4.34427L7.00646 39.6861C7.07665 40.1139 7.2885 40.5059 7.60802 40.799C7.92413 41.0884 8.33699 41.2493 8.7656 41.2501H35.6795C36.0018 41.2506 36.3132 41.1339 36.5558 40.9217C36.7983 40.7095 36.9554 40.4163 36.9978 40.0968L40.339 18.7921H27.946L26.3596 28.4171H17.6352L15.424 15.6983H40.8254L42.6095 4.35458C42.7187 3.60263 42.2331 2.89021 41.519 2.7699Z" fill="white" fill-opacity="0.61"/>
</svg>
