<svg width="35" height="35" viewBox="0 0 35 35" fill="none" xmlns="http://www.w3.org/2000/svg">
<path d="M30.625 1.4585H17.5C17.3066 1.4585 17.1211 1.53532 16.9844 1.67206C16.8476 1.80881 16.7708 1.99428 16.7708 2.18766V16.771H2.18748C1.99409 16.771 1.80863 16.8478 1.67188 16.9846C1.53514 17.1213 1.45831 17.3068 1.45831 17.5002V30.6252C1.45831 31.3987 1.7656 32.1406 2.31258 32.6876C2.85957 33.2345 3.60143 33.5418 4.37498 33.5418H17.5C17.6934 33.5418 17.8788 33.465 18.0156 33.3283C18.1523 33.1915 18.2291 33.006 18.2291 32.8127V18.2293H32.8125C33.0059 18.2293 33.1913 18.1525 33.3281 18.0158C33.4648 17.879 33.5416 17.6935 33.5416 17.5002V4.37516C33.5416 3.60161 33.2344 2.85975 32.6874 2.31277C32.1404 1.76579 31.3985 1.4585 30.625 1.4585Z" fill="white" fill-opacity="0.61"/>
</svg>
