<svg width="95" height="94" viewBox="0 0 95 94" fill="none" xmlns="http://www.w3.org/2000/svg">
<ellipse cx="47.6146" cy="47" rx="47.1473" ry="47" fill="#101222"/>
<path d="M94.262 47C94.262 72.6798 73.3787 93.5 47.6146 93.5C21.8505 93.5 0.967285 72.6798 0.967285 47C0.967285 21.3202 21.8505 0.5 47.6146 0.5C73.3787 0.5 94.262 21.3202 94.262 47Z" stroke="white" stroke-opacity="0.21"/>
<g clip-path="url(#clip0_1128_12246)">
<path d="M50.5695 48.8667C50.1648 48.6645 49.2633 48.3923 48.1902 48.3215C47.1167 48.2508 45.7397 48.3215 45.7397 48.3215V52.9546C45.7397 52.9546 47.1776 52.9852 48.1399 52.9145C49.1014 52.8438 50.0939 52.6017 50.5901 52.3288C51.086 52.0562 51.6836 51.6323 51.6836 50.5726C51.6836 49.5125 50.9747 49.0686 50.5695 48.8667Z" fill="white" fill-opacity="0.8"/>
<path d="M47.5422 46.1713C48.3324 46.1409 49.1727 45.9594 49.7798 45.6262C50.3875 45.2932 50.7316 44.7686 50.7118 43.981C50.6911 43.1936 50.165 42.5274 49.274 42.2546C48.3827 41.982 47.7857 41.9618 47.1068 41.9518C46.4284 41.9419 45.7397 42.0024 45.7397 42.0024V46.1713C45.7397 46.1713 46.7524 46.2017 47.5422 46.1713Z" fill="white" fill-opacity="0.8"/>
<path d="M47.1168 30C37.4194 30 29.5581 37.8366 29.5581 47.5038C29.5581 57.1708 37.4194 65.0076 47.1168 65.0076C56.8141 65.0076 64.6751 57.1708 64.6751 47.5038C64.6751 37.8366 56.8141 30 47.1168 30ZM54.2661 54.1964C52.9594 55.105 51.5621 55.2668 50.9444 55.3472C50.6395 55.3871 50.1173 55.4293 49.5573 55.462V58.9713H47.3902V55.5188C46.9853 55.5188 46.4054 55.5188 45.7398 55.5188V58.9713H43.5728V55.5188C41.4282 55.5188 39.3098 55.5188 39.3098 55.5188L39.7552 52.9241C39.7552 52.9241 40.6158 52.9241 41.0512 52.9241C41.4869 52.9241 41.6688 52.8838 41.851 52.7123C42.0332 52.5406 42.0738 52.2783 42.0738 52.066C42.0738 51.8541 42.0738 43.6877 42.0738 43.1274C42.0738 42.5675 42.0281 42.4159 41.7699 42.1284C41.5116 41.8402 40.9043 41.8024 40.5623 41.8024C40.2206 41.8024 39.3096 41.8024 39.3096 41.8024V39.5595C39.3096 39.5595 41.3604 39.5595 43.5726 39.5595V36.0971H45.7395V39.5595C46.3416 39.5595 46.9064 39.5595 47.3899 39.5595V36.0971H49.557V39.601C51.1726 39.7008 52.3752 40.0077 53.4249 40.7809C54.7821 41.7802 54.7109 43.5163 54.6805 43.9303C54.6503 44.3442 54.4681 45.1418 54.1032 45.6562C53.739 46.1712 52.8479 46.6861 52.8479 46.6861C52.8479 46.6861 53.9008 46.908 54.6404 47.4633C55.3791 48.0187 55.9265 48.9976 55.8954 50.4311C55.8657 51.8646 55.5721 53.288 54.2661 54.1964Z" fill="white" fill-opacity="0.8"/>
</g>
<defs>
<clipPath id="clip0_1128_12246">
<rect width="35.1097" height="35" fill="white" transform="translate(29.5581 30)"/>
</clipPath>
</defs>
</svg>
