<svg width="95" height="94" viewBox="0 0 95 94" fill="none" xmlns="http://www.w3.org/2000/svg">
<ellipse cx="47.1473" cy="47" rx="47.1473" ry="47" transform="matrix(-1 0 0 1 94.5854 0)" fill="#121111"/>
<path d="M0.790779 47C0.790779 72.6798 21.674 93.5 47.4381 93.5C73.2022 93.5 94.0854 72.6798 94.0854 47C94.0854 21.3202 73.2022 0.5 47.4381 0.5C21.674 0.5 0.790779 21.3202 0.790779 47Z" stroke="white" stroke-opacity="0.21"/>
<g clip-path="url(#clip0_1128_12250)">
<path d="M47.9401 30C38.2438 30 30.3853 37.834 30.3853 47.5C30.3853 57.166 38.2438 65 47.9401 65C57.6364 65 65.495 57.166 65.495 47.5C65.495 37.834 57.6364 30 47.9401 30ZM47.9401 62.8604C39.4301 62.8604 32.5316 55.9834 32.5316 47.5C32.5316 39.0166 39.4301 32.1396 47.9401 32.1396C56.4501 32.1396 63.3486 39.0166 63.3486 47.5C63.3486 55.9834 56.4501 62.8604 47.9401 62.8604Z" fill="white" fill-opacity="0.8"/>
<path d="M47.9401 33.8896C40.397 33.8896 34.2871 39.9805 34.2871 47.5C34.2871 55.0195 40.4039 61.1104 47.9401 61.1104C55.4764 61.1104 61.5931 55.0195 61.5931 47.5C61.5931 39.9805 55.4832 33.8896 47.9401 33.8896ZM47.6864 58.9844L41.6862 49.749L47.6864 52.9209V58.9844ZM47.6864 51.6836L42.1594 48.7646L47.6864 46.3926V51.6836ZM47.6864 45.5244L41.5559 48.1563L47.6864 36.9658V45.5244ZM48.2693 46.3857L53.8169 48.7646L48.2693 51.6973V46.3857ZM48.2693 59.0186V52.9346L54.2969 49.749L48.2693 59.0186ZM48.2693 45.5176V36.9248L54.4272 48.1563L48.2693 45.5176Z" fill="white" fill-opacity="0.8"/>
</g>
<defs>
<clipPath id="clip0_1128_12250">
<rect width="35.1097" height="35" fill="white" transform="translate(30.3853 30)"/>
</clipPath>
</defs>
</svg>
