<svg width="514" height="1321" viewBox="0 0 514 1321" fill="none" xmlns="http://www.w3.org/2000/svg">
<path fill-rule="evenodd" clip-rule="evenodd" d="M415.624 31.499C393.567 31.4991 364.594 38.5383 332.195 51.4292C299.777 64.3271 263.861 83.1108 227.898 106.666C161.858 149.922 95.5902 209.316 50.5395 278H52.9337C97.7774 210.073 163.463 151.261 228.994 108.339C264.859 84.8476 300.657 66.1296 332.934 53.2875C365.229 40.4383 393.931 33.4991 415.624 33.499V31.499ZM33.6792 581H31.3574C76.8493 658.533 167.317 736.141 321.201 807.907C464.966 874.953 503.154 1009.29 468.358 1118.78C433.561 1228.27 325.782 1312.9 177.337 1280.52L176.911 1282.48C326.466 1315.1 435.187 1229.76 470.264 1119.38C505.344 1009 466.782 873.594 322.046 806.094C169.017 734.727 79.0789 657.71 33.6792 581Z" fill="#B6BAFE"/>
<g filter="url(#filter0_f_1261_5608)">
<path fill-rule="evenodd" clip-rule="evenodd" d="M415.624 31.499C393.567 31.4991 364.594 38.5383 332.195 51.4292C299.777 64.3271 263.861 83.1108 227.898 106.666C161.858 149.922 95.5902 209.316 50.5395 278H52.9337C97.7774 210.073 163.463 151.261 228.994 108.339C264.859 84.8476 300.657 66.1296 332.934 53.2875C365.229 40.4383 393.931 33.4991 415.624 33.499V31.499ZM33.6792 581H31.3574C76.8493 658.533 167.317 736.141 321.201 807.907C464.966 874.953 503.154 1009.29 468.358 1118.78C433.561 1228.27 325.782 1312.9 177.337 1280.52L176.911 1282.48C326.466 1315.1 435.187 1229.76 470.264 1119.38C505.344 1009 466.782 873.594 322.046 806.094C169.017 734.727 79.0789 657.71 33.6792 581Z" fill="#B6BAFE"/>
</g>
<defs>
<filter id="filter0_f_1261_5608" x="0.257421" y="0.399023" width="513.232" height="1320.21" filterUnits="userSpaceOnUse" color-interpolation-filters="sRGB">
<feFlood flood-opacity="0" result="BackgroundImageFix"/>
<feBlend mode="normal" in="SourceGraphic" in2="BackgroundImageFix" result="shape"/>
<feGaussianBlur stdDeviation="15.55" result="effect1_foregroundBlur_1261_5608"/>
</filter>
</defs>
</svg>
