<svg width="147" height="40" viewBox="0 0 147 40" fill="none" xmlns="http://www.w3.org/2000/svg">
<path d="M143.989 11.1123H146.98V32.053H144.378L133.518 16.6167V32.053H130.527V11.1123H133.13L143.989 26.5486V11.1123Z" fill="white" fill-opacity="0.43"/>
<path d="M116.473 10.7529C122.666 10.7529 127.093 15.4496 127.093 21.5823C127.093 27.7149 122.666 32.4415 116.473 32.4415C110.251 32.4415 105.823 27.7149 105.823 21.5823C105.823 15.4496 110.251 10.7529 116.473 10.7529ZM116.473 29.6295C121.349 29.6295 124.072 25.6507 124.072 21.5823C124.072 17.5138 121.349 13.535 116.473 13.535C111.597 13.535 108.875 17.5138 108.875 21.5823C108.875 25.6507 111.597 29.6295 116.473 29.6295Z" fill="white" fill-opacity="0.43"/>
<path d="M104.473 11.1123V13.8346H99.178V32.053H96.1865V13.8346H90.8915V11.1123H104.473Z" fill="white" fill-opacity="0.43"/>
<path d="M78.9331 10.7529C85.1256 10.7529 89.553 15.4496 89.553 21.5823C89.553 27.7149 85.1256 32.4415 78.9331 32.4415C72.7107 32.4415 68.2833 27.7149 68.2833 21.5823C68.2833 15.4496 72.7107 10.7529 78.9331 10.7529ZM78.9331 29.6295C83.8093 29.6295 86.5316 25.6507 86.5316 21.5823C86.5316 17.5138 83.8093 13.535 78.9331 13.535C74.0569 13.535 71.3346 17.5138 71.3346 21.5823C71.3346 25.6507 74.0569 29.6295 78.9331 29.6295Z" fill="white" fill-opacity="0.43"/>
<path d="M66.9333 32.053H63.3435L59.0057 23.946C58.7664 23.9759 58.4972 23.9759 58.198 23.9759H54.7279V32.053H51.7363V11.1123H58.198C62.9845 11.1123 65.7367 13.9243 65.7367 17.5441C65.7367 20.0869 64.3905 22.2109 61.9673 23.2579L66.9333 32.053ZM54.7279 21.2536H58.198C61.0998 21.2536 62.6554 19.7877 62.6554 17.5441C62.6554 15.3004 61.0998 13.8346 58.198 13.8346H54.7279V21.2536Z" fill="white" fill-opacity="0.43"/>
<path d="M40.879 11.1123C45.6056 11.1123 48.4475 14.1337 48.4475 17.9629C48.4475 21.7921 45.6056 24.7836 40.879 24.7836H37.1994V32.053H34.2079V11.1123H40.879ZM40.879 22.0613C43.691 22.0613 45.3663 20.416 45.3663 17.9629C45.3663 15.5098 43.691 13.8346 40.879 13.8346H37.1994V22.0613H40.879Z" fill="white" fill-opacity="0.43"/>
<path fill-rule="evenodd" clip-rule="evenodd" d="M21.9467 5.32036L17.3181 7.98027L12.6898 10.6404V5.32036V0L17.3181 2.66018L21.9467 5.32036Z" fill="white" fill-opacity="0.43"/>
<path fill-rule="evenodd" clip-rule="evenodd" d="M1.17078 5.32036L5.79938 7.98027L10.4277 10.6404V5.32036V0L5.79938 2.66018L1.17078 5.32036Z" fill="white" fill-opacity="0.43"/>
<path fill-rule="evenodd" clip-rule="evenodd" d="M0.0398815 7.27148L0.0396118 12.5918L0.0398815 17.9119L4.66822 15.252L9.29655 12.5918L4.66822 9.93166L0.0398815 7.27148Z" fill="white" fill-opacity="0.43"/>
<path fill-rule="evenodd" clip-rule="evenodd" d="M1.13104 19.8838L5.75938 22.5437L10.3877 25.2039V19.8838V14.5635L5.75938 17.2237L1.13104 19.8838Z" fill="white" fill-opacity="0.43"/>
<path fill-rule="evenodd" clip-rule="evenodd" d="M23.0775 17.8902L18.4491 15.2303L13.8208 12.5701L18.4491 9.90991L23.0775 7.25V12.5701V17.8902Z" fill="white" fill-opacity="0.43"/>
<path fill-rule="evenodd" clip-rule="evenodd" d="M21.9467 19.8409L17.3181 17.1807L12.6898 14.5205V19.8409V25.161L17.3181 22.5008L21.9467 19.8409Z" fill="white" fill-opacity="0.43"/>
<path fill-rule="evenodd" clip-rule="evenodd" d="M9.25694 27.1551L4.62833 24.4949L0 21.835V27.1551V32.4751L4.62833 29.8152L9.25694 27.1551Z" fill="white" fill-opacity="0.43"/>
<path fill-rule="evenodd" clip-rule="evenodd" d="M1.13104 34.4239L5.75938 31.7637L10.3877 29.1035V34.4239V39.744L5.75938 37.0838L1.13104 34.4239Z" fill="white" fill-opacity="0.43"/>
</svg>
