<svg xmlns="http://www.w3.org/2000/svg" viewBox="0 0 1031.95 1473.6"><defs><style>.cls-1,.cls-3{fill:#fff;}.cls-1,.cls-2{fill-rule:evenodd;}.cls-2{fill:#ff5800;}</style></defs><g id="Layer_2" data-name="Layer 2"><g id="Layer_1-2" data-name="Layer 1"><path class="cls-1" d="M979.88,238l-206.66,119-76.69,44.15a237.29,237.29,0,0,0-129.95-72.52V0L773.22,119Z"/><path class="cls-1" d="M465.58,0V330.91a237.63,237.63,0,0,0-122.83,74.27l-83.81-48.25L52.28,238,258.94,119Z"/><path class="cls-1" d="M294.18,632.74l-85.75,49.38L1.79,801.08l0-237.94,0-238,206.64,119,85.28,49.11a239.17,239.17,0,0,0,.47,139.48Z"/><path class="cls-1" d="M463.79,793.12v334.17l-206.64-119-206.66-119,206.66-119,86.66-49.9A237.73,237.73,0,0,0,463.79,793.12Z"/><path class="cls-1" d="M1030.37,324.29V800.18l-206.64-119-76.37-44a238.92,238.92,0,0,0,0-150l76.37-44Z"/><path class="cls-1" d="M979.88,887.4l-206.66,119-206.64,119V795.9A237.29,237.29,0,0,0,696,724l77.23,44.45Z"/><path class="cls-1" d="M413.3,1214.51l-206.65-119L0,976.56v475.9l206.65-119Z"/><path class="cls-2" d="M1032,996.76,823.71,1113,615.49,1229.13l204.15,122.23,204.15,122.24,4.08-238.41Z"/><path class="cls-3" d="M624.2,532.31h0l-90.48-82.22a18.09,18.09,0,0,0-24.43,0l-90.48,82.22a18.13,18.13,0,0,0-5.89,13.35V650.28A18.1,18.1,0,0,0,431,668.37H612a18.09,18.09,0,0,0,18.1-18.09V545.66A18.08,18.08,0,0,0,624.2,532.31Z"/></g></g></svg>