<svg width="52" height="90" viewBox="0 0 52 90" fill="none" xmlns="http://www.w3.org/2000/svg">
<path fill-rule="evenodd" clip-rule="evenodd" d="M49.3004 11.9779L38.9028 17.9662L28.5059 23.9552V11.9779V0L38.9028 5.98895L49.3004 11.9779Z" fill="white"/>
<path fill-rule="evenodd" clip-rule="evenodd" d="M2.62988 11.9779L13.0274 17.9662L23.4244 23.9552V11.9779V0L13.0274 5.98895L2.62988 11.9779Z" fill="white"/>
<path fill-rule="evenodd" clip-rule="evenodd" d="M0.089473 16.3677L0.0888672 28.3456L0.089473 40.3229L10.4864 34.3345L20.8834 28.3456L10.4864 22.3566L0.089473 16.3677Z" fill="white"/>
<path fill-rule="evenodd" clip-rule="evenodd" d="M2.54102 44.765L12.938 50.7534L23.3349 56.7423V44.765V32.7871L12.938 38.7761L2.54102 44.765Z" fill="white"/>
<path fill-rule="evenodd" clip-rule="evenodd" d="M51.8408 40.2769L41.4438 34.2885L31.0469 28.2996L41.4438 22.3106L51.8408 16.3223V28.2996V40.2769Z" fill="white"/>
<path fill-rule="evenodd" clip-rule="evenodd" d="M49.3004 44.6678L38.9028 38.6789L28.5059 32.6899V44.6678V56.6451L38.9028 50.6562L49.3004 44.6678Z" fill="white"/>
<path fill-rule="evenodd" clip-rule="evenodd" d="M20.7945 61.1328L10.397 55.1439L0 49.1555V61.1328V73.1101L10.397 67.1218L20.7945 61.1328Z" fill="white"/>
<path fill-rule="evenodd" clip-rule="evenodd" d="M2.54102 77.5009L12.938 71.5119L23.3349 65.5229V77.5009V89.4781L12.938 83.4892L2.54102 77.5009Z" fill="white"/>
</svg>
