<svg width="36" height="36" viewBox="0 0 36 36" fill="none" xmlns="http://www.w3.org/2000/svg">
<path fill-rule="evenodd" clip-rule="evenodd" d="M18 7.5C17.1716 7.5 16.5 8.17158 16.5 9V19.5V24C16.5 24.8284 17.1716 25.5 18 25.5H27.75C31.478 25.5 34.5 22.478 34.5 18.75C34.5 15.022 31.478 12 27.75 12C27.5379 12 27.3279 12.0098 27.1203 12.0291C25.2732 9.25562 21.8136 7.5 18 7.5Z" fill="white" fill-opacity="0.61"/>
<path fill-rule="evenodd" clip-rule="evenodd" d="M15.75 7.5V25.5H12.75V7.5H15.75Z" fill="white" fill-opacity="0.61"/>
<path fill-rule="evenodd" clip-rule="evenodd" d="M12 13.5V25.5H9V13.5H12Z" fill="white" fill-opacity="0.61"/>
<path fill-rule="evenodd" clip-rule="evenodd" d="M8.25 10.5V25.5H5.25V10.5H8.25Z" fill="white" fill-opacity="0.61"/>
<path fill-rule="evenodd" clip-rule="evenodd" d="M4.5 18V25.5H1.5V18H4.5Z" fill="white" fill-opacity="0.61"/>
</svg>
