<svg width="23" height="22" viewBox="0 0 23 22" fill="none" xmlns="http://www.w3.org/2000/svg">
<ellipse cx="11.0345" cy="11" rx="11.0345" ry="11" fill="#121111"/>
<path d="M21.569 11C21.569 16.7975 16.854 21.5 11.0345 21.5C5.21497 21.5 0.5 16.7975 0.5 11C0.5 5.20248 5.21497 0.5 11.0345 0.5C16.854 0.5 21.569 5.20248 21.569 11Z" stroke="white" stroke-opacity="0.21"/>
<g clip-path="url(#clip0_1128_12249)">
<path d="M11.0342 6C8.26385 6 6.01855 8.23828 6.01855 11C6.01855 13.7617 8.26385 16 11.0342 16C13.8046 16 16.0499 13.7617 16.0499 11C16.0499 8.23828 13.8046 6 11.0342 6ZM11.0342 15.3887C8.6028 15.3887 6.6318 13.4238 6.6318 11C6.6318 8.57617 8.6028 6.61133 11.0342 6.61133C13.4657 6.61133 15.4367 8.57617 15.4367 11C15.4367 13.4238 13.4657 15.3887 11.0342 15.3887Z" fill="white" fill-opacity="0.3"/>
<path d="M11.0342 7.11133C8.87899 7.11133 7.1333 8.85156 7.1333 11C7.1333 13.1484 8.88095 14.8887 11.0342 14.8887C13.1893 14.8887 14.935 13.1465 14.935 11C14.935 8.85156 13.1893 7.11133 11.0342 7.11133ZM11.0322 14.2246C9.87233 14.2246 8.85548 13.6152 8.28338 12.7012H9.6235V10.998L11.0322 12.3984L12.4409 10.998V12.7012H13.7791C13.2089 13.6152 12.1921 14.2246 11.0322 14.2246ZM13.1325 12.0137V9.30664L11.0322 11.3984L8.93385 9.30664V12.0137H7.9601C7.8543 11.6953 7.79553 11.3535 7.79553 10.998C7.79553 9.2168 9.24341 7.77344 11.0302 7.77344C12.8171 7.77344 14.265 9.2168 14.265 10.998C14.265 11.3535 14.2081 11.6934 14.1004 12.0137H13.1325Z" fill="white" fill-opacity="0.3"/>
</g>
<defs>
<clipPath id="clip0_1128_12249">
<rect width="10.0313" height="10" fill="white" transform="translate(6.01855 6)"/>
</clipPath>
</defs>
</svg>
