<svg width="68" height="66" viewBox="0 0 68 66" fill="none" xmlns="http://www.w3.org/2000/svg">
<ellipse cx="33.1034" cy="33" rx="33.1034" ry="33" transform="matrix(-1 0 0 1 67.1377 0)" fill="#101222"/>
<path d="M1.4308 33C1.4308 50.9478 16.0264 65.5 34.0342 65.5C52.0421 65.5 66.6377 50.9478 66.6377 33C66.6377 15.0522 52.0421 0.5 34.0342 0.5C16.0264 0.5 1.4308 15.0522 1.4308 33Z" stroke="white" stroke-opacity="0.21"/>
<path d="M41.3196 31.166L38.9795 33.4988L41.3196 35.8316L43.6597 33.4988L41.3196 31.166Z" fill="white" fill-opacity="0.7"/>
<path d="M25.7478 31.1672L23.4077 33.5L25.7478 35.8328L28.0879 33.5L25.7478 31.1672Z" fill="white" fill-opacity="0.7"/>
<path d="M33.5331 38.9301L29.6541 35.0632L27.3145 37.3956L33.5331 43.5948L39.7518 37.3956L37.4121 35.0632L33.5331 38.9301Z" fill="white" fill-opacity="0.7"/>
<path d="M33.5331 28.07L37.4121 31.9368L39.7518 29.6045L33.5331 23.4053L27.3145 29.6045L29.6541 31.9368L33.5331 28.07Z" fill="white" fill-opacity="0.7"/>
<path d="M33.532 31.1964L31.2212 33.5L33.532 35.8036L35.8428 33.5L33.532 31.1964Z" fill="white" fill-opacity="0.7"/>
</svg>
