<svg width="49" height="48" viewBox="0 0 49 48" fill="none" xmlns="http://www.w3.org/2000/svg">
<ellipse cx="24.0752" cy="24" rx="24.0752" ry="24" transform="matrix(-1 0 0 1 48.6362 0)" fill="#101222"/>
<path d="M0.98576 24C0.98576 36.9772 11.5393 47.5 24.561 47.5C37.5827 47.5 48.1362 36.9772 48.1362 24C48.1362 11.0228 37.5827 0.5 24.561 0.5C11.5393 0.5 0.98576 11.0228 0.98576 24Z" stroke="white" stroke-opacity="0.21"/>
<g clip-path="url(#clip0_1128_12252)">
<path d="M24.5612 16C20.1286 16 16.5361 19.5813 16.5361 24C16.5361 28.4187 20.1286 32 24.5612 32C28.9938 32 32.5863 28.4187 32.5863 24C32.5863 19.5813 28.9938 16 24.5612 16ZM24.5612 31.0219C20.6709 31.0219 17.5173 27.8781 17.5173 24C17.5173 20.1219 20.6709 16.9781 24.5612 16.9781C28.4515 16.9781 31.6051 20.1219 31.6051 24C31.6051 27.8781 28.4515 31.0219 24.5612 31.0219Z" fill="white" fill-opacity="0.5"/>
<path d="M24.5612 17.7781C21.1129 17.7781 18.3198 20.5625 18.3198 24C18.3198 27.4375 21.1161 30.2218 24.5612 30.2218C28.0063 30.2218 30.8026 27.4375 30.8026 24C30.8026 20.5625 28.0095 17.7781 24.5612 17.7781ZM27.4672 22.0531H27.4578L24.2446 25.8781H27.4672V27.5937H25.2791V29.0062H23.6208V27.5937H21.696V25.8781L24.9092 22.0562H21.696V20.3406H23.6208V18.9718H25.2791V20.3375H27.4672V22.0531Z" fill="white" fill-opacity="0.5"/>
</g>
<defs>
<clipPath id="clip0_1128_12252">
<rect width="16.0502" height="16" fill="white" transform="translate(16.5361 16)"/>
</clipPath>
</defs>
</svg>
