<svg width="24" height="22" viewBox="0 0 24 22" fill="none" xmlns="http://www.w3.org/2000/svg">
<ellipse cx="11.0345" cy="11" rx="11.0345" ry="11" transform="matrix(-1 0 0 1 23.0532 0)" fill="#101222"/>
<path d="M1.48426 11C1.48426 16.7975 6.19923 21.5 12.0187 21.5C17.8383 21.5 22.5532 16.7975 22.5532 11C22.5532 5.20248 17.8383 0.5 12.0187 0.5C6.19923 0.5 1.48426 5.20248 1.48426 11Z" stroke="white" stroke-opacity="0.21"/>
<g clip-path="url(#clip0_1128_12253)">
<path d="M12.0186 6C9.24823 6 7.00293 8.23828 7.00293 11C7.00293 13.7617 9.24823 16 12.0186 16C14.789 16 17.0343 13.7617 17.0343 11C17.0343 8.23828 14.789 6 12.0186 6ZM12.0186 15.3887C9.58718 15.3887 7.61617 13.4238 7.61617 11C7.61617 8.57617 9.58718 6.61133 12.0186 6.61133C14.45 6.61133 16.421 8.57617 16.421 11C16.421 13.4238 14.45 15.3887 12.0186 15.3887Z" fill="white" fill-opacity="0.3"/>
<path d="M12.0185 7.11133C9.86337 7.11133 8.11768 8.85156 8.11768 11C8.11768 13.1484 9.86532 14.8887 12.0185 14.8887C14.1737 14.8887 15.9194 13.1465 15.9194 11C15.9194 8.85156 14.1737 7.11133 12.0185 7.11133ZM12.0166 14.2246C10.8567 14.2246 9.83985 13.6152 9.26775 12.7012H10.6079V10.998L12.0166 12.3984L13.4253 10.998V12.7012H14.7634C14.1933 13.6152 13.1765 14.2246 12.0166 14.2246ZM14.1169 12.0137V9.30664L12.0166 11.3984L9.91822 9.30664V12.0137H8.94448C8.83868 11.6953 8.7799 11.3535 8.7799 10.998C8.7799 9.2168 10.2278 7.77344 12.0146 7.77344C13.8015 7.77344 15.2493 9.2168 15.2493 10.998C15.2493 11.3535 15.1925 11.6934 15.0848 12.0137H14.1169Z" fill="white" fill-opacity="0.3"/>
</g>
<defs>
<clipPath id="clip0_1128_12253">
<rect width="10.0313" height="10" fill="white" transform="translate(7.00293 6)"/>
</clipPath>
</defs>
</svg>
