<svg width="49" height="48" viewBox="0 0 49 48" fill="none" xmlns="http://www.w3.org/2000/svg">
<ellipse cx="24.4922" cy="24" rx="24.0752" ry="24" fill="#121111"/>
<path d="M48.0675 24C48.0675 36.9772 37.5139 47.5 24.4922 47.5C11.4705 47.5 0.916992 36.9772 0.916992 24C0.916992 11.0228 11.4705 0.5 24.4922 0.5C37.5139 0.5 48.0675 11.0228 48.0675 24Z" stroke="white" stroke-opacity="0.21"/>
<g clip-path="url(#clip0_1128_12248)">
<path d="M24.4924 16C20.0598 16 16.4673 19.5813 16.4673 24C16.4673 28.4187 20.0598 32 24.4924 32C28.925 32 32.5174 28.4187 32.5174 24C32.5174 19.5813 28.925 16 24.4924 16ZM24.4924 31.0219C20.6021 31.0219 17.4485 27.8781 17.4485 24C17.4485 20.1219 20.6021 16.9781 24.4924 16.9781C28.3826 16.9781 31.5363 20.1219 31.5363 24C31.5363 27.8781 28.3826 31.0219 24.4924 31.0219Z" fill="white" fill-opacity="0.5"/>
<path d="M24.4924 17.7781C21.0441 17.7781 18.251 20.5625 18.251 24C18.251 27.4375 21.0472 30.2218 24.4924 30.2218C27.9375 30.2218 30.7337 27.4375 30.7337 24C30.7337 20.5625 27.9406 17.7781 24.4924 17.7781ZM27.3983 22.0531H27.3889L24.1757 25.8781H27.3983V27.5937H25.2102V29.0062H23.5519V27.5937H21.6272V25.8781L24.8403 22.0562H21.6272V20.3406H23.5519V18.9718H25.2102V20.3375H27.3983V22.0531Z" fill="white" fill-opacity="0.5"/>
</g>
<defs>
<clipPath id="clip0_1128_12248">
<rect width="16.0502" height="16" fill="white" transform="translate(16.4673 16)"/>
</clipPath>
</defs>
</svg>
