<svg width="58" height="58" viewBox="0 0 58 58" fill="none" xmlns="http://www.w3.org/2000/svg">
<path fill-rule="evenodd" clip-rule="evenodd" d="M54.9074 14.9531C55.3107 13.6753 54.9074 12.7464 53.1232 12.7464H47.1907C45.6943 12.7464 45.0032 13.5598 44.6 14.4298C44.6 14.4298 41.5482 21.861 37.2865 26.6789C35.9045 28.0722 35.2713 28.5367 34.5225 28.5367C34.1192 28.5367 33.6003 28.0722 33.6003 26.7955V14.8931C33.6003 13.3842 33.1404 12.6875 31.8728 12.6875H22.543C21.6209 12.6875 21.0454 13.3842 21.0454 14.0809C21.0454 15.532 23.1762 15.8809 23.4062 19.9443V28.7734C23.4062 30.689 23.0663 31.0391 22.3119 31.0391C20.2966 31.0391 15.4017 23.55 12.4655 15.0166C11.8945 13.3264 11.3145 12.6875 9.81695 12.6875H3.82777C2.10023 12.6875 1.8125 13.4997 1.8125 14.3709C1.8125 15.9387 3.82777 23.8332 11.199 34.2823C16.0939 41.419 23.0618 45.2547 29.3387 45.2547C33.1404 45.2547 33.6003 44.3836 33.6003 42.9325V37.5335C33.6003 35.7923 33.9459 35.5023 35.1557 35.5023C36.0189 35.5023 37.5743 35.9657 41.0871 39.3913C45.1177 43.4547 45.8087 45.3125 48.055 45.3125H53.9864C55.714 45.3125 56.5205 44.4414 56.0595 42.758C55.5418 41.0746 53.5832 38.6368 51.0491 35.7346C49.667 34.1101 47.594 32.3101 46.9607 31.4389C46.0975 30.2778 46.3275 29.8134 46.9607 28.7689C46.903 28.7689 54.1598 18.4354 54.9074 14.9486" fill="white" fill-opacity="0.61"/>
</svg>
