<svg width="43" height="43" viewBox="0 0 43 43" fill="none" xmlns="http://www.w3.org/2000/svg">
<path fill-rule="evenodd" clip-rule="evenodd" d="M31.3541 7.88802V19.7082C31.3541 20.4546 31.8169 21.1229 32.5157 21.3853C33.2144 21.6478 34.0026 21.4497 34.4942 20.888L40.765 13.7213L40.793 13.6885L41.2083 13.1902V25.979C41.2083 26.684 40.7948 27.3235 40.1519 27.6128L22.2353 35.6753C21.7676 35.8858 21.2323 35.8858 20.7647 35.6753L2.84806 27.6128C2.20511 27.3235 1.79163 26.684 1.79163 25.979V12.5415C1.79163 11.8985 2.13615 11.3049 2.69438 10.9859L8.96521 7.40257C9.50206 7.0958 10.1591 7.08751 10.7036 7.38066L21.5 13.1941L31.3541 7.88802ZM34.9375 7.91843V14.9397L38.0541 11.3779L39.0017 10.2408L34.9375 7.91843Z" fill="white" fill-opacity="0.61"/>
</svg>
