<svg width="31" height="31" viewBox="0 0 31 31" fill="none" xmlns="http://www.w3.org/2000/svg">
<g clip-path="url(#clip0_1313_5094)">
<path d="M30.9096 9.36442C30.8532 9.26681 30.7723 9.18565 30.6749 9.129C30.5774 9.07235 30.4669 9.04218 30.3542 9.0415H25.1875C22.3587 9.0415 21.1058 12.5807 20.0208 16.3394C18.4579 10.7723 17.7475 9.0415 14.8542 9.0415H9.04165C5.29582 9.0415 2.50582 12.7744 -1.48285e-05 21.1315C-0.0287991 21.2299 -0.0337527 21.3337 -0.014466 21.4344C0.00482067 21.5351 0.0477936 21.6297 0.1109 21.7105C0.174006 21.7912 0.255433 21.8558 0.348449 21.8989C0.441465 21.942 0.543397 21.9623 0.645818 21.9582H3.22915C5.81248 21.9582 6.84582 21.4028 8.96415 15.2028L10.6562 13.5107C12.5937 20.4211 13.5108 21.9582 15.5 21.9582H21.3125C23.405 21.9582 25.1875 20.2919 30.9225 9.99734C30.9748 9.8996 31.0012 9.79004 30.9989 9.67919C30.9966 9.56834 30.9659 9.45994 30.9096 9.36442Z" fill="white" fill-opacity="0.61"/>
</g>
<defs>
<clipPath id="clip0_1313_5094">
<rect width="31" height="31" fill="white"/>
</clipPath>
</defs>
</svg>
