<svg width="51" height="51" viewBox="0 0 51 51" fill="none" xmlns="http://www.w3.org/2000/svg">
<path d="M22.4931 36.5726L20.6222 31.4895C20.6222 31.4895 17.5841 34.8793 13.0301 34.8793C8.99911 34.8793 6.13534 31.3711 6.13534 25.7627C6.13534 18.5784 9.75544 16.0057 13.3197 16.0057C18.4602 16.0057 20.096 19.3379 21.4998 23.6025L23.3675 29.4444C25.2383 35.1097 28.7417 39.6668 38.8489 39.6668C46.094 39.6668 50.9998 37.4474 50.9998 31.6078C50.9998 26.8755 48.3134 24.4196 43.2892 23.2508L39.5508 22.4337C36.9796 21.8501 36.2201 20.7995 36.2201 19.0439C36.2201 17.0594 37.7967 15.889 40.3694 15.889C43.1709 15.889 44.6897 16.9427 44.9249 19.4532L50.7663 18.7528C50.2992 13.4936 46.679 11.3335 40.7196 11.3335C35.4605 11.3335 30.3213 13.3179 30.3213 19.6866C30.3213 23.6602 32.2483 26.1721 37.0978 27.3402L41.0697 28.2741C44.0489 28.9744 45.0417 30.204 45.0417 31.8974C45.0417 34.0577 42.9374 34.9354 38.9657 34.9354C33.0669 34.9354 30.6126 31.8382 29.2102 27.5737L27.2831 21.7333C24.8303 14.1381 20.9144 11.3335 13.1449 11.3335C4.55723 11.3333 0 16.7667 0 25.9979C0 34.8793 4.55723 39.6668 12.7374 39.6668C19.3366 39.6668 22.4931 36.5726 22.4931 36.5726Z" fill="white" fill-opacity="0.61"/>
</svg>
