<svg width="35" height="35" viewBox="0 0 35 35" fill="none" xmlns="http://www.w3.org/2000/svg">
<path d="M30.6249 1.4585H17.4999C17.3065 1.4585 17.1211 1.53532 16.9843 1.67206C16.8476 1.80881 16.7708 1.99428 16.7708 2.18766V16.771H2.18742C1.99403 16.771 1.80857 16.8478 1.67182 16.9846C1.53507 17.1213 1.45825 17.3068 1.45825 17.5002V30.6252C1.45825 31.3987 1.76554 32.1406 2.31252 32.6876C2.8595 33.2345 3.60137 33.5418 4.37492 33.5418H17.4999C17.6933 33.5418 17.8788 33.465 18.0155 33.3283C18.1523 33.1915 18.2291 33.006 18.2291 32.8127V18.2293H32.8124C33.0058 18.2293 33.1913 18.1525 33.328 18.0158C33.4648 17.879 33.5416 17.6935 33.5416 17.5002V4.37516C33.5416 3.60161 33.2343 2.85975 32.6873 2.31277C32.1403 1.76579 31.3985 1.4585 30.6249 1.4585Z" fill="white" fill-opacity="0.61"/>
</svg>
