<svg width="48" height="48" viewBox="0 0 48 48" fill="none" xmlns="http://www.w3.org/2000/svg">
<path d="M29.8704 29.3892H22.4387C21.6331 29.3892 20.9778 28.7339 20.9778 27.9282V24.0689H29.8704C31.4407 24.0689 32.7185 22.7915 32.7185 21.2212C32.7185 19.6509 31.4407 18.3735 29.8704 18.3735H20.9778V15.7632C20.9778 14.1929 19.6999 12.9155 18.1296 12.9155C16.5593 12.9155 15.2815 14.1929 15.2815 15.7632V27.9282C15.2815 31.8745 18.4924 35.0845 22.4387 35.0845H29.8704C31.4407 35.0845 32.7185 33.8071 32.7185 32.2368C32.7185 30.6665 31.4407 29.3892 29.8704 29.3892ZM17.1111 25.4722V24.772C17.1111 24.5786 17.2678 24.4224 17.4612 24.4224C17.6545 24.4224 17.8113 24.5786 17.8113 24.772V25.4722C17.8113 25.6655 17.6545 25.8218 17.4612 25.8218C17.2678 25.8218 17.1111 25.6655 17.1111 25.4722ZM17.8113 23.1577C17.8113 23.3511 17.6545 23.5073 17.4612 23.5073C17.2678 23.5073 17.1111 23.3511 17.1111 23.1577V18.8941C17.1111 18.7007 17.2678 18.5444 17.4612 18.5444C17.6545 18.5444 17.8113 18.7007 17.8113 18.8941V23.1577Z" fill="white" fill-opacity="0.61"/>
</svg>
