<svg width="59" height="59" viewBox="0 0 59 59" fill="none" xmlns="http://www.w3.org/2000/svg">
<g clip-path="url(#clip0_1313_5128)">
<path d="M55.3125 23.2775V38.0275C55.3131 38.3562 55.2258 38.6791 55.0597 38.9628C54.8936 39.2464 54.6546 39.4805 54.3676 39.6408L32.7266 51.9248C32.5858 52.006 32.4261 52.0486 32.2635 52.0483C32.101 52.0479 31.9415 52.0046 31.8011 51.9227C31.6607 51.8408 31.5445 51.7233 31.4641 51.582C31.3838 51.4407 31.3423 51.2806 31.3438 51.1181V37.9583L44.2039 30.6525L51.625 34.8701V26.4349L44.2039 30.6525L40.4703 28.5322L49.7352 23.2775L31.3438 12.8372V23.3466L40.4703 28.5322L29.5 34.7548L18.5297 28.5322L27.6563 23.3466V12.8372L9.26485 23.2775L18.5297 28.5322L14.7961 30.6525L7.375 26.4349V34.8701L14.7961 30.6525L27.6563 37.9583V51.1181C27.6577 51.2806 27.6162 51.4407 27.5359 51.582C27.4556 51.7233 27.3393 51.8408 27.1989 51.9227C27.0585 52.0046 26.899 52.0479 26.7365 52.0483C26.5739 52.0486 26.4142 52.006 26.2734 51.9248L4.63243 39.6408C4.3454 39.4805 4.10645 39.2464 3.94031 38.9628C3.77417 38.6791 3.68689 38.3562 3.6875 38.0275V23.2775C3.68689 22.9488 3.77417 22.6258 3.94031 22.3422C4.10645 22.0585 4.3454 21.8245 4.63243 21.6642L27.6793 8.59662C28.2336 8.27926 28.8613 8.1123 29.5 8.1123C30.1387 8.1123 30.7664 8.27926 31.3207 8.59662L54.3676 21.6642C54.6546 21.8245 54.8936 22.0585 55.0597 22.3422C55.2258 22.6258 55.3131 22.9488 55.3125 23.2775Z" fill="white" fill-opacity="0.61"/>
</g>
<defs>
<clipPath id="clip0_1313_5128">
<rect width="59" height="59" fill="white"/>
</clipPath>
</defs>
</svg>
