<svg width="44" height="44" viewBox="0 0 44 44" fill="none" xmlns="http://www.w3.org/2000/svg">
<path d="M41.5191 2.7699C41.4468 2.75859 41.3739 2.75199 41.3008 2.75013H2.71487C1.97666 2.73982 1.38541 3.34138 1.3751 4.10365C1.37178 4.18436 1.37842 4.26518 1.39487 4.34427L7.00658 39.6861C7.07677 40.1139 7.28862 40.5059 7.60815 40.799C7.92425 41.0884 8.33711 41.2493 8.76572 41.2501H35.6796C36.0019 41.2506 36.3134 41.1339 36.5559 40.9217C36.7985 40.7095 36.9556 40.4163 36.9979 40.0968L40.3392 18.7921H27.9461L26.3597 28.4171H17.6353L15.4242 15.6983H40.8256L42.6096 4.35458C42.7188 3.60263 42.2332 2.89021 41.5191 2.7699Z" fill="white" fill-opacity="0.61"/>
</svg>
