<svg width="71" height="71" viewBox="0 0 71 71" fill="none" xmlns="http://www.w3.org/2000/svg">
<g clip-path="url(#clip0_1313_5119)">
<path d="M70.1083 32.5352C69.6535 32.0457 66.3892 28.0575 64.6294 25.9081C63.6934 24.7654 62.9543 23.8627 62.6436 23.4882L62.6187 23.4577L62.5909 23.4286C61.8671 22.6202 60.8381 21.6938 59.2933 21.6938C59.0421 21.6971 58.7915 21.7174 58.5431 21.7548C58.4918 21.7618 58.4391 21.7701 58.3836 21.7756C58.0439 21.8131 56.9886 21.9837 54.4814 22.3969C52.54 22.7145 49.6126 23.197 49.1689 23.2386L49.0704 23.247L48.9747 23.265C47.588 23.5118 46.67 24.1275 46.2623 25.0941C46.0474 25.6044 45.8158 26.6403 46.67 27.8481C46.8822 28.1559 47.6171 29.1738 48.8804 30.9224C49.7208 32.0873 50.6651 33.3936 51.4805 34.5279L36.0408 38.1348L20.8923 13.3194L20.8646 13.2723L20.8327 13.2265L20.7717 13.1364C20.1518 12.2267 19.3808 11.0938 17.1537 11.0938C16.997 11.0938 16.8334 11.0938 16.6503 11.109C16.0124 11.1437 13.68 11.3267 10.98 11.5403C7.99998 11.7746 3.92164 12.095 3.39191 12.1088H3.29068L3.18113 12.1199C1.91367 12.2433 0.994272 12.7578 0.449292 13.6453C-0.459009 15.1277 0.252378 16.7918 0.485346 17.3381C0.952671 18.4434 5.20851 27.4154 8.96236 35.335C11.4585 40.5962 14.035 46.0363 14.2458 46.5189C14.6164 47.4203 15.251 48.1887 16.0662 48.723C16.8814 49.2573 17.8391 49.5326 18.8136 49.5128C19.2735 49.5107 19.7319 49.4596 20.1809 49.3603H20.21L20.2378 49.3533C22.1598 48.8846 28.2572 47.337 32.6073 46.2207C32.8708 46.6811 33.1481 47.1679 33.4393 47.6685C36.4804 53.0073 38.695 56.8693 39.4244 57.8553C39.7988 58.3809 40.9082 59.9062 42.9966 59.9062C43.7537 59.9062 44.4471 59.7121 45.1793 59.5055L45.3915 59.4459H45.3998H45.4081C46.8683 59.0298 66.3046 52.2127 67.3002 51.7704L67.3307 51.7565C68.0851 51.4223 69.225 50.9175 69.5744 49.621C69.8033 48.7723 69.5994 47.9111 68.9671 47.0611L68.9574 47.0486L68.9477 47.0361C68.8298 46.8836 68.393 46.3136 67.8008 45.5246C66.5348 43.8508 64.4893 41.1467 62.6922 38.7935C65.1009 38.1694 68.0726 37.3915 68.7077 37.1918C70.2983 36.7162 70.7795 35.7094 70.9265 35.1492C71.036 34.7123 71.1789 33.596 70.1083 32.5352ZM25.7333 40.6045C23.2636 41.1828 21.5427 41.5863 20.4791 41.8387C19.5541 39.9888 17.7417 36.3404 15.9722 32.7793C11.8481 24.47 9.71812 20.192 8.59765 17.9552L9.72783 17.8582C11.5777 17.6987 14.1112 17.481 15.5215 17.3631C17.8457 21.282 25.8276 34.7387 28.8756 39.8696L25.7333 40.6045ZM50.4391 49.8456C47.0819 50.955 45.2625 51.561 44.2793 51.8896C43.4057 50.4558 41.4837 47.2413 39.7766 44.375L55.821 40.287C56.5143 41.2313 57.8414 43.0216 60.4609 46.5175C57.9551 47.3551 53.777 48.739 50.4391 49.8456ZM58.1867 32.9789L54.8919 28.6066C56.7875 28.2752 57.8789 28.0838 58.5181 27.9687L60.1822 30.0322L61.8379 32.0873C60.7008 32.3632 59.3779 32.6863 58.1867 32.9789Z" fill="white" fill-opacity="0.61"/>
</g>
<defs>
<clipPath id="clip0_1313_5119">
<rect width="71" height="71" fill="white"/>
</clipPath>
</defs>
</svg>
