<svg width="69" height="69" viewBox="0 0 69 69" fill="none" xmlns="http://www.w3.org/2000/svg">
<path d="M44.567 47.4375L55.041 21.5625H48.0979L40.9337 38.2829L35.8382 21.5625H30.5002L25.0314 38.2829L21.173 30.6646L17.6826 41.373L21.227 47.4375H28.0596L33.0028 32.4421L37.7196 47.4375H44.567Z" fill="white" fill-opacity="0.61"/>
<path d="M6.57521 38.5551H10.8405C12.0059 38.5715 13.1679 38.4259 14.2932 38.1225L15.3956 34.7278L18.4791 25.2416C18.2412 24.8671 17.9706 24.5145 17.6705 24.1877C16.091 22.4376 13.7762 21.5625 10.726 21.5625H0V47.4375H6.57521V38.5551ZM12.2219 27.5151C12.8409 28.1368 13.15 28.9688 13.1491 30.011C13.1482 31.0531 12.8787 31.8855 12.3405 32.5082C11.7439 33.1928 10.646 33.5346 9.04682 33.5337H6.57521V26.5825H9.0576C10.5481 26.5825 11.6029 26.8934 12.2219 27.5151ZM50.7864 42.8029L52.7796 37.7829H58.5328L55.8024 30.1673L59.2174 21.5625L69 47.4375H61.786L60.1149 42.8029H50.7864Z" fill="white" fill-opacity="0.61"/>
</svg>
