<svg width="21" height="21" viewBox="0 0 21 21" fill="none" xmlns="http://www.w3.org/2000/svg">
<g clip-path="url(#clip0_1276_16901)">
<path d="M1.07187 7.40864C1.16463 7.30101 7.42 1.26788 7.42 1.26788C8.24451 0.458943 9.35418 0.00686195 10.5093 0.00931782C11.6643 0.0117737 12.7721 0.468569 13.5931 1.28101C13.5931 1.28101 19.8354 7.30101 19.9272 7.40601L12.3559 14.9783C11.8556 15.4551 11.1911 15.7211 10.5 15.7211C9.80892 15.7211 9.14435 15.4551 8.64412 14.9783L1.07187 7.40864ZM13.5931 16.219C12.77 17.0341 11.6584 17.4913 10.5 17.4913C9.34159 17.4913 8.23001 17.0341 7.40688 16.219L0.200375 9.01251C0.0745936 9.41138 0.00710466 9.82634 0 10.2445L0 16.625C0.00138938 17.7849 0.462772 18.8969 1.28294 19.7171C2.10311 20.5372 3.2151 20.9986 4.375 21H16.625C17.7849 20.9986 18.8969 20.5372 19.7171 19.7171C20.5372 18.8969 20.9986 17.7849 21 16.625V10.2445C20.9929 9.82634 20.9254 9.41138 20.7996 9.01251L13.5931 16.219Z" fill="#101222"/>
</g>
<defs>
<clipPath id="clip0_1276_16901">
<rect width="21" height="21" fill="white"/>
</clipPath>
</defs>
</svg>
