<svg width="33" height="57" viewBox="0 0 33 57" fill="none" xmlns="http://www.w3.org/2000/svg">
<g clip-path="url(#clip0_1276_13889)">
<path fill-rule="evenodd" clip-rule="evenodd" d="M31.3826 7.63024L24.7639 11.445L18.1455 15.2601V7.63024V0L24.7639 3.81512L31.3826 7.63024Z" fill="white"/>
<path fill-rule="evenodd" clip-rule="evenodd" d="M1.67383 7.63024L8.29257 11.445L14.9109 15.2601V7.63024V0L8.29257 3.81512L1.67383 7.63024Z" fill="white"/>
<path fill-rule="evenodd" clip-rule="evenodd" d="M0.0570263 10.4266L0.0566406 18.0568L0.0570263 25.6867L6.67538 21.872L13.2937 18.0568L6.67538 14.2417L0.0570263 10.4266Z" fill="white"/>
<path fill-rule="evenodd" clip-rule="evenodd" d="M1.61719 28.5166L8.23554 32.3313L14.8539 36.1464V28.5166V20.8863L8.23554 24.7014L1.61719 28.5166Z" fill="white"/>
<path fill-rule="evenodd" clip-rule="evenodd" d="M33.0004 25.6574L26.382 21.8427L19.7637 18.0276L26.382 14.2125L33.0004 10.3977V18.0276V25.6574Z" fill="white"/>
<path fill-rule="evenodd" clip-rule="evenodd" d="M31.3826 28.4546L24.7639 24.6395L18.1455 20.8243V28.4546V36.0844L24.7639 32.2693L31.3826 28.4546Z" fill="white"/>
<path fill-rule="evenodd" clip-rule="evenodd" d="M13.2371 38.9431L6.61836 35.128L0 31.3133V38.9431V46.573L6.61836 42.7583L13.2371 38.9431Z" fill="white"/>
<path fill-rule="evenodd" clip-rule="evenodd" d="M1.61719 49.3701L8.23554 45.555L14.8539 41.7399V49.3701V57L8.23554 53.1849L1.61719 49.3701Z" fill="white"/>
</g>
<defs>
<clipPath id="clip0_1276_13889">
<rect width="33" height="57" fill="white"/>
</clipPath>
</defs>
</svg>
