<svg width="147" height="40" viewBox="0 0 147 40" fill="none" xmlns="http://www.w3.org/2000/svg">
<path d="M143.989 11.1121H146.981V32.0527H144.378L133.519 16.6165V32.0527H130.527V11.1121H133.13L143.989 26.5483V11.1121Z" fill="white" fill-opacity="0.43"/>
<path d="M116.473 10.7527C122.666 10.7527 127.093 15.4494 127.093 21.582C127.093 27.7146 122.666 32.4413 116.473 32.4413C110.251 32.4413 105.823 27.7146 105.823 21.582C105.823 15.4494 110.251 10.7527 116.473 10.7527ZM116.473 29.6292C121.349 29.6292 124.072 25.6505 124.072 21.582C124.072 17.5135 121.349 13.5348 116.473 13.5348C111.597 13.5348 108.875 17.5135 108.875 21.582C108.875 25.6505 111.597 29.6292 116.473 29.6292Z" fill="white" fill-opacity="0.43"/>
<path d="M104.473 11.1121V13.8344H99.1781V32.0527H96.1866V13.8344H90.8916V11.1121H104.473Z" fill="white" fill-opacity="0.43"/>
<path d="M78.933 10.7527C85.1255 10.7527 89.5529 15.4494 89.5529 21.582C89.5529 27.7146 85.1255 32.4413 78.933 32.4413C72.7107 32.4413 68.2832 27.7146 68.2832 21.582C68.2832 15.4494 72.7107 10.7527 78.933 10.7527ZM78.933 29.6292C83.8092 29.6292 86.5315 25.6505 86.5315 21.582C86.5315 17.5135 83.8092 13.5348 78.933 13.5348C74.0568 13.5348 71.3346 17.5135 71.3346 21.582C71.3346 25.6505 74.0568 29.6292 78.933 29.6292Z" fill="white" fill-opacity="0.43"/>
<path d="M66.9333 32.0527H63.3435L59.0057 23.9457C58.7664 23.9756 58.4972 23.9756 58.198 23.9756H54.7279V32.0527H51.7363V11.1121H58.198C62.9845 11.1121 65.7367 13.9241 65.7367 17.5438C65.7367 20.0866 64.3905 22.2106 61.9674 23.2577L66.9333 32.0527ZM54.7279 21.2533H58.198C61.0998 21.2533 62.6554 19.7875 62.6554 17.5438C62.6554 15.3002 61.0998 13.8344 58.198 13.8344H54.7279V21.2533Z" fill="white" fill-opacity="0.43"/>
<path d="M40.8791 11.1121C45.6057 11.1121 48.4477 14.1335 48.4477 17.9627C48.4477 21.7918 45.6057 24.7833 40.8791 24.7833H37.1995V32.0527H34.208V11.1121H40.8791ZM40.8791 22.061C43.6911 22.061 45.3664 20.4157 45.3664 17.9627C45.3664 15.5096 43.6911 13.8344 40.8791 13.8344H37.1995V22.061H40.8791Z" fill="white" fill-opacity="0.43"/>
<path fill-rule="evenodd" clip-rule="evenodd" d="M21.9464 5.32036L17.3178 7.98027L12.6895 10.6404V5.32036V0L17.3178 2.66018L21.9464 5.32036Z" fill="white" fill-opacity="0.43"/>
<path fill-rule="evenodd" clip-rule="evenodd" d="M1.1709 5.32036L5.7995 7.98027L10.4278 10.6404V5.32036V0L5.7995 2.66018L1.1709 5.32036Z" fill="white" fill-opacity="0.43"/>
<path fill-rule="evenodd" clip-rule="evenodd" d="M0.0403087 7.27148L0.0400391 12.5918L0.0403087 17.9119L4.66864 15.252L9.29698 12.5918L4.66864 9.93166L0.0403087 7.27148Z" fill="white" fill-opacity="0.43"/>
<path fill-rule="evenodd" clip-rule="evenodd" d="M1.13086 19.8838L5.75919 22.5437L10.3875 25.2039V19.8838V14.5635L5.75919 17.2237L1.13086 19.8838Z" fill="white" fill-opacity="0.43"/>
<path fill-rule="evenodd" clip-rule="evenodd" d="M23.078 17.8907L18.4496 15.2308L13.8213 12.5706L18.4496 9.9104L23.078 7.25049V12.5706V17.8907Z" fill="white" fill-opacity="0.43"/>
<path fill-rule="evenodd" clip-rule="evenodd" d="M21.9464 19.8409L17.3178 17.1807L12.6895 14.5205V19.8409V25.161L17.3178 22.5008L21.9464 19.8409Z" fill="white" fill-opacity="0.43"/>
<path fill-rule="evenodd" clip-rule="evenodd" d="M9.25694 27.1551L4.62833 24.4949L0 21.835V27.1551V32.4751L4.62833 29.8152L9.25694 27.1551Z" fill="white" fill-opacity="0.43"/>
<path fill-rule="evenodd" clip-rule="evenodd" d="M1.13086 34.4241L5.75919 31.7639L10.3875 29.1038V34.4241V39.7442L5.75919 37.084L1.13086 34.4241Z" fill="white" fill-opacity="0.43"/>
</svg>
