<svg width="65" height="65" viewBox="0 0 65 65" fill="none" xmlns="http://www.w3.org/2000/svg">
<circle cx="32.5" cy="32.5" r="32.5" fill="#FF5800"/>
<g clip-path="url(#clip0_1557_11834)">
<path d="M23.0719 29.4091C23.1646 29.3015 29.42 23.2683 29.42 23.2683C30.2445 22.4594 31.3542 22.0073 32.5093 22.0098C33.6643 22.0122 34.7721 22.469 35.5931 23.2815C35.5931 23.2815 41.8354 29.3015 41.9272 29.4065L34.3559 36.9787C33.8556 37.4556 33.1911 37.7216 32.5 37.7216C31.8089 37.7216 31.1444 37.4556 30.6441 36.9787L23.0719 29.4091ZM35.5931 38.2195C34.77 39.0345 33.6584 39.4918 32.5 39.4918C31.3416 39.4918 30.23 39.0345 29.4069 38.2195L22.2004 31.013C22.0746 31.4118 22.0071 31.8268 22 32.245V38.6255C22.0014 39.7854 22.4628 40.8974 23.2829 41.7175C24.1031 42.5377 25.2151 42.9991 26.375 43.0005H38.625C39.7849 42.9991 40.8969 42.5377 41.7171 41.7175C42.5372 40.8974 42.9986 39.7854 43 38.6255V32.245C42.9929 31.8268 42.9254 31.4118 42.7996 31.013L35.5931 38.2195Z" fill="#101222"/>
</g>
<defs>
<clipPath id="clip0_1557_11834">
<rect width="21" height="21" fill="white" transform="translate(22 22)"/>
</clipPath>
</defs>
</svg>
