<svg width="65" height="65" viewBox="0 0 65 65" fill="none" xmlns="http://www.w3.org/2000/svg">
<circle cx="32.5" cy="32.5" r="32.5" fill="#B6BAFE"/>
<path d="M42.0403 32.5411C41.7857 32.5411 41.5416 32.4401 41.3616 32.2604C41.1817 32.0807 41.0805 31.837 41.0805 31.5829C41.0785 29.5507 40.2689 27.6022 38.8295 26.1652C37.3901 24.7282 35.4384 23.92 33.4027 23.9179C33.1482 23.9179 32.9041 23.817 32.7241 23.6373C32.5441 23.4576 32.443 23.2139 32.443 22.9598C32.443 22.7057 32.5441 22.462 32.7241 22.2823C32.9041 22.1026 33.1482 22.0017 33.4027 22.0017C35.9472 22.0045 38.3867 23.0148 40.1859 24.811C41.9852 26.6073 42.9972 29.0427 43 31.5829C43 31.837 42.8989 32.0807 42.7189 32.2604C42.5389 32.4401 42.2948 32.5411 42.0403 32.5411ZM39.1611 31.5829C39.1611 30.0583 38.5544 28.5961 37.4745 27.518C36.3946 26.4399 34.9299 25.8342 33.4027 25.8342C33.1482 25.8342 32.9041 25.9351 32.7241 26.1148C32.5441 26.2945 32.443 26.5382 32.443 26.7923C32.443 27.0464 32.5441 27.2901 32.7241 27.4698C32.9041 27.6495 33.1482 27.7504 33.4027 27.7504C34.4209 27.7504 35.3973 28.1542 36.1172 28.8729C36.8372 29.5917 37.2416 30.5665 37.2416 31.5829C37.2416 31.837 37.3427 32.0807 37.5227 32.2604C37.7027 32.4401 37.9468 32.5411 38.2014 32.5411C38.4559 32.5411 38.7 32.4401 38.88 32.2604C39.06 32.0807 39.1611 31.837 39.1611 31.5829ZM41.2562 43.2376L42.1295 42.2325C42.6854 41.6757 42.9975 40.9217 42.9975 40.1356C42.9975 39.3495 42.6854 38.5955 42.1295 38.0388C42.0998 38.0091 39.7907 36.2356 39.7907 36.2356C39.2365 35.7089 38.5003 35.4157 37.7352 35.4167C36.9701 35.4178 36.2348 35.7131 35.6821 36.2413L33.8528 37.7801C32.3597 37.1631 31.0033 36.2578 29.8616 35.116C28.7199 33.9743 27.8154 32.6186 27.2 31.1269L28.7356 29.3064C29.2651 28.7547 29.5612 28.0205 29.5625 27.2564C29.5637 26.4923 29.27 25.7572 28.7423 25.2037C28.7423 25.2037 26.9639 22.9014 26.9342 22.8717C26.3866 22.3215 25.6442 22.0084 24.8673 22.0002C24.0905 21.9919 23.3415 22.2891 22.7824 22.8276L21.6787 23.7857C15.1583 31.3377 29.1991 45.2467 37.0132 44.9967C37.8023 45.0012 38.5843 44.8479 39.313 44.5458C40.0418 44.2437 40.7025 43.7988 41.2562 43.2376Z" fill="#101222"/>
</svg>
