<svg width="65" height="65" viewBox="0 0 65 65" fill="none" xmlns="http://www.w3.org/2000/svg">
<circle cx="32.5" cy="32.5" r="32.5" fill="#FF5800"/>
<path d="M32.5 19C29.7152 19 27.0445 20.1206 25.0754 22.1153C23.1062 24.11 22 26.8154 22 29.6364C22 39.0909 32.5 45 32.5 45C32.5 45 43 39.0909 43 29.6364C43 26.8154 41.8938 24.11 39.9246 22.1153C37.9555 20.1206 35.2848 19 32.5 19ZM32.5 34.3636C31.577 34.3636 30.6748 34.0864 29.9073 33.5669C29.1399 33.0475 28.5418 32.3092 28.1886 31.4454C27.8354 30.5816 27.7429 29.6311 27.923 28.7141C28.1031 27.7971 28.5475 26.9548 29.2002 26.2937C29.8528 25.6326 30.6843 25.1823 31.5896 24.9999C32.4948 24.8175 33.4331 24.9111 34.2859 25.2689C35.1386 25.6267 35.8674 26.2326 36.3802 27.01C36.893 27.7874 37.1667 28.7014 37.1667 29.6364C37.1667 30.8901 36.675 32.0925 35.7998 32.979C34.9247 33.8656 33.7377 34.3636 32.5 34.3636Z" fill="#101222"/>
</svg>
