<svg width="288" height="57" viewBox="0 0 288 57" fill="none" xmlns="http://www.w3.org/2000/svg">
<circle cx="28.5" cy="28.5" r="28.5" fill="white" fill-opacity="0.12"/>
<g clip-path="url(#clip0_1276_14098)">
<path d="M28.5 12C19.3873 12 12 19.3873 12 28.5C12 37.6127 19.3873 45 28.5 45C37.6127 45 45 37.6127 45 28.5C45 19.3873 37.6127 12 28.5 12ZM23.823 36.6641H20.1456V25.1261H23.823V36.6641ZM21.9843 23.615C21.5751 23.615 21.1751 23.4936 20.8349 23.2663C20.4946 23.0389 20.2294 22.7158 20.0728 22.3378C19.9163 21.9597 19.8753 21.5437 19.9551 21.1424C20.0349 20.7411 20.232 20.3724 20.5213 20.0831C20.8107 19.7937 21.1793 19.5967 21.5807 19.5168C21.982 19.437 22.398 19.478 22.7761 19.6346C23.1541 19.7912 23.4772 20.0563 23.7046 20.3966C23.9319 20.7368 24.0532 21.1368 24.0532 21.546C24.0532 22.0947 23.8353 22.621 23.4473 23.009C23.0593 23.397 22.533 23.615 21.9843 23.615ZM37.0852 36.6641H33.4758V30.3553C33.4758 30.0348 33.5264 27.9094 31.7214 27.9094C31.4007 27.9014 31.0827 27.9709 30.7946 28.112C30.5064 28.2531 30.2566 28.4616 30.0662 28.7199C29.7347 29.1622 29.5577 29.7012 29.5623 30.2539V36.6638H25.9573V25.1261H29.3873V26.7454C30.2082 25.4859 31.2428 25.0249 32.2605 24.8393C34.0669 24.51 37.0848 25.6097 37.0848 28.8934L37.0852 36.6641Z" fill="white"/>
</g>
<circle cx="105.5" cy="28.5" r="28.5" fill="white" fill-opacity="0.12"/>
<g clip-path="url(#clip1_1276_14098)">
<path d="M108.69 33.661C107.743 34.2848 106.634 34.6173 105.5 34.6173C104.366 34.6173 103.257 34.2848 102.309 33.661C102.269 33.632 102.222 33.6116 102.173 33.6009C102.125 33.5902 102.074 33.5895 102.025 33.5987C101.976 33.6079 101.929 33.6269 101.887 33.6546C101.845 33.6822 101.809 33.718 101.782 33.7598C101.754 33.8015 101.735 33.8484 101.726 33.8976C101.717 33.9468 101.718 33.9974 101.728 34.0463C101.739 34.0952 101.76 34.1414 101.789 34.1823C101.818 34.2231 101.854 34.2578 101.897 34.2841C102.966 34.9888 104.219 35.3644 105.5 35.3644C106.781 35.3644 108.033 34.9888 109.103 34.2841C109.182 34.228 109.236 34.1432 109.254 34.0477C109.272 33.9523 109.252 33.8536 109.199 33.7726C109.145 33.6916 109.062 33.6346 108.967 33.6138C108.872 33.593 108.773 33.6099 108.69 33.661Z" fill="white"/>
<path d="M102.048 31.5825C102.846 31.5825 103.492 30.936 103.492 30.1386C103.492 29.3412 102.846 28.6948 102.048 28.6948C101.251 28.6948 100.604 29.3412 100.604 30.1386C100.604 30.936 101.251 31.5825 102.048 31.5825Z" fill="white"/>
<path d="M108.952 31.5825C109.749 31.5825 110.395 30.936 110.395 30.1386C110.395 29.3412 109.749 28.6948 108.952 28.6948C108.154 28.6948 107.508 29.3412 107.508 30.1386C107.508 30.936 108.154 31.5825 108.952 31.5825Z" fill="white"/>
<path d="M105.5 12C96.3873 12 89 19.3873 89 28.5C89 37.6127 96.3873 45 105.5 45C114.613 45 122 37.6127 122 28.5C122 19.3873 114.613 12 105.5 12ZM114.092 30.5872C114.133 30.8233 114.154 31.0625 114.154 31.3022C114.154 34.6079 110.279 37.2877 105.5 37.2877C100.721 37.2877 96.8461 34.6079 96.8461 31.3022C96.8463 31.0625 96.8669 30.8233 96.9078 30.5872C96.617 30.461 96.3577 30.2719 96.1487 30.0335C95.9396 29.7951 95.786 29.5134 95.699 29.2085C95.6119 28.9037 95.5935 28.5833 95.645 28.2705C95.6966 27.9576 95.8169 27.6601 95.9972 27.3993C96.1776 27.1386 96.4135 26.921 96.6879 26.7623C96.9624 26.6037 97.2687 26.5078 97.5847 26.4817C97.9006 26.4555 98.2185 26.4998 98.5153 26.6112C98.8121 26.7226 99.0806 26.8985 99.3013 27.1261C100.788 26.0708 102.832 25.3937 105.105 25.323L106.19 20.0877C106.216 19.9658 106.288 19.8588 106.392 19.7902C106.496 19.7216 106.623 19.6969 106.745 19.7217L110.391 20.4595C110.566 20.1581 110.843 19.9287 111.171 19.8121C111.5 19.6955 111.859 19.6995 112.185 19.8231C112.51 19.9468 112.782 20.1823 112.95 20.4874C113.118 20.7926 113.173 21.1476 113.104 21.4892C113.034 21.8308 112.846 22.1367 112.572 22.3523C112.299 22.568 111.957 22.6793 111.609 22.6665C111.261 22.6538 110.928 22.5177 110.671 22.2826C110.414 22.0474 110.248 21.7286 110.204 21.3828L107.018 20.7379L106.066 25.3296C108.27 25.428 110.25 26.0973 111.699 27.1261C111.92 26.8986 112.188 26.7228 112.485 26.6115C112.782 26.5002 113.099 26.456 113.415 26.4822C113.731 26.5084 114.037 26.6042 114.312 26.7629C114.586 26.9216 114.822 27.1391 115.002 27.3998C115.182 27.6605 115.303 27.9579 115.354 28.2707C115.406 28.5834 115.388 28.9037 115.301 29.2085C115.214 29.5133 115.06 29.7951 114.851 30.0335C114.642 30.2718 114.383 30.4609 114.092 30.5872H114.092Z" fill="white"/>
</g>
<g clip-path="url(#clip2_1276_14098)">
<path fill-rule="evenodd" clip-rule="evenodd" d="M182.437 44.9999L182.452 44.9999H182.447L182.437 44.9999ZM182.553 44.9999H182.548L182.563 44.9999L182.553 44.9999ZM182.387 44.9996L182.402 44.9997H182.393L182.387 44.9996ZM182.607 44.9997H182.598L182.613 44.9996L182.607 44.9997ZM182.338 44.9992L182.349 44.9993L182.34 44.9992H182.338ZM182.66 44.9992L182.651 44.9993L182.662 44.9992H182.66ZM182.713 44.9986L182.709 44.9987L182.724 44.9985L182.713 44.9986ZM182.276 44.9985L182.291 44.9987L182.287 44.9986L182.276 44.9985ZM182.766 44.9979L182.758 44.998L182.775 44.9977L182.766 44.9979ZM182.225 44.9977L182.242 44.998L182.234 44.9979L182.225 44.9977ZM182.819 44.997L182.808 44.9972L182.824 44.9968L182.819 44.997ZM182.176 44.9968L182.192 44.9972L182.181 44.997L182.176 44.9968ZM182.116 44.9956L182.13 44.9959L182.127 44.9959L182.116 44.9956ZM182.873 44.9959L182.87 44.9959L182.884 44.9956L182.873 44.9959ZM182.063 44.9943L182.082 44.9948L182.074 44.9946L182.063 44.9943ZM182.926 44.9946L182.918 44.9948L182.937 44.9943L182.926 44.9946ZM182.979 44.9932L182.966 44.9936L182.986 44.993L182.979 44.9932ZM182.014 44.993L182.034 44.9936L182.021 44.9932L182.014 44.993ZM181.968 44.9916L181.982 44.992L181.968 44.9916L181.956 44.9912L181.968 44.9916ZM183.032 44.9916L183.018 44.992L183.032 44.9916L183.044 44.9912L183.032 44.9916ZM183.085 44.9898L183.077 44.9901L183.1 44.9893L183.085 44.9898ZM181.9 44.9893L181.923 44.9901L181.915 44.9898L181.9 44.9893ZM181.852 44.9875L181.876 44.9883L181.863 44.9879L181.852 44.9875ZM183.137 44.9879L183.124 44.9883L183.148 44.9875L183.137 44.9879ZM181.805 44.9856L181.828 44.9865L181.81 44.9858L181.805 44.9856ZM183.19 44.9858L183.172 44.9865L183.195 44.9856L183.19 44.9858ZM181.738 44.9827L181.763 44.9838L181.757 44.9836L181.738 44.9827ZM183.243 44.9836L183.237 44.9838L183.262 44.9827L183.243 44.9836ZM181.691 44.9805L181.716 44.9816L181.704 44.9811L181.691 44.9805ZM183.296 44.9811L183.284 44.9816L183.309 44.9805L183.296 44.9811ZM181.644 44.9781L181.669 44.9794L181.651 44.9785L181.644 44.9781ZM183.349 44.9785L183.331 44.9794L183.356 44.9781L183.349 44.9785ZM183.401 44.9758L183.378 44.977L183.399 44.9759L183.423 44.9745L183.401 44.9758ZM181.601 44.9759L181.622 44.977L181.599 44.9758L181.577 44.9745L181.601 44.9759ZM183.454 44.9728L183.444 44.9734L183.47 44.9719L183.454 44.9728ZM181.53 44.9719L181.556 44.9734L181.546 44.9728L181.53 44.9719ZM181.484 44.9691L181.51 44.9707L181.494 44.9698L181.484 44.9691ZM183.506 44.9698L183.49 44.9707L183.516 44.9691L183.506 44.9698ZM181.439 44.9664L181.463 44.9678L181.441 44.9665L181.419 44.9651L181.439 44.9664ZM183.559 44.9665L183.537 44.9678L183.561 44.9664L183.581 44.9651L183.559 44.9665ZM183.611 44.9631L183.604 44.9636L183.629 44.9619L183.611 44.9631ZM181.371 44.9619L181.396 44.9636L181.389 44.9631L181.371 44.9619ZM181.325 44.9587L181.349 44.9604L181.336 44.9595L181.325 44.9587ZM183.664 44.9595L183.651 44.9604L183.675 44.9587L183.664 44.9595ZM181.279 44.9554L181.301 44.957L181.284 44.9558L181.279 44.9554ZM183.716 44.9558L183.699 44.957L183.721 44.9554L183.716 44.9558ZM181.216 44.9507L181.236 44.9522L181.231 44.9519L181.216 44.9507ZM183.769 44.9519L183.764 44.9522L183.784 44.9507L183.769 44.9519ZM183.821 44.9478L183.812 44.9485L183.832 44.9469L183.821 44.9478ZM181.168 44.9469L181.188 44.9485L181.179 44.9478L181.168 44.9469ZM181.122 44.9431L181.139 44.9445L181.127 44.9435L181.122 44.9431ZM183.873 44.9435L183.861 44.9445L183.878 44.9431L183.873 44.9435ZM181.07 44.9388L181.075 44.9392L181.074 44.9392L181.07 44.9388ZM183.926 44.9392L183.925 44.9392L183.93 44.9388L183.926 44.9392ZM183.978 44.9346L183.973 44.935L183.985 44.9339L183.978 44.9346ZM181.015 44.9339L181.027 44.935L181.022 44.9346L181.015 44.9339ZM180.967 44.9296L180.976 44.9304L180.97 44.9299L180.967 44.9296ZM184.03 44.9299L184.024 44.9304L184.033 44.9296L184.03 44.9299ZM179.922 44.7994C172.038 43.5602 166 36.7296 166 28.5C166 19.3934 173.393 12 182.5 12C191.607 12 199 19.3934 199 28.5C199 36.7296 192.962 43.5602 185.078 44.7994V33.2695H188.923L189.654 28.5H185.078V25.4049C185.078 24.1 185.717 22.8281 187.767 22.8281H189.848V18.7676C189.848 18.7676 187.959 18.4453 186.154 18.4453C182.385 18.4453 179.922 20.7295 179.922 24.8648V28.5H175.732V33.2695H179.922V44.7994Z" fill="white"/>
</g>
<circle cx="182.5" cy="28.5" r="28.5" fill="white" fill-opacity="0.12"/>
<circle cx="259.5" cy="28.5" r="28.5" fill="white" fill-opacity="0.12"/>
<g clip-path="url(#clip3_1276_14098)">
<path fill-rule="evenodd" clip-rule="evenodd" d="M259.5 12C268.607 12 276 19.3934 276 28.5C276 37.6066 268.607 45 259.5 45C250.393 45 243 37.6066 243 28.5C243 19.3934 250.393 12 259.5 12ZM259.5 18.1875C256.699 18.1875 256.348 18.1994 255.248 18.2496C254.151 18.2996 253.401 18.474 252.745 18.7289C252.067 18.9925 251.492 19.3451 250.918 19.9184C250.345 20.4917 249.992 21.0668 249.729 21.7449C249.474 22.4009 249.3 23.1505 249.25 24.2482C249.199 25.3481 249.188 25.6993 249.188 28.5C249.188 31.3007 249.199 31.6519 249.25 32.7518C249.3 33.8495 249.474 34.5991 249.729 35.2551C249.992 35.9332 250.345 36.5083 250.918 37.0817C251.492 37.655 252.067 38.0076 252.745 38.2712C253.401 38.526 254.151 38.7003 255.248 38.7504C256.348 38.8006 256.699 38.8125 259.5 38.8125C262.301 38.8125 262.652 38.8006 263.752 38.7504C264.849 38.7003 265.599 38.526 266.255 38.2712C266.933 38.0076 267.508 37.655 268.082 37.0817C268.655 36.5083 269.008 35.9332 269.271 35.2551C269.526 34.5991 269.7 33.8495 269.75 32.7518C269.801 31.6519 269.812 31.3007 269.812 28.5C269.812 25.6993 269.801 25.3481 269.75 24.2482C269.7 23.1505 269.526 22.4009 269.271 21.7449C269.008 21.0668 268.655 20.4917 268.082 19.9184C267.508 19.3451 266.933 18.9925 266.255 18.7289C265.599 18.474 264.849 18.2996 263.752 18.2496C262.652 18.1994 262.301 18.1875 259.5 18.1875ZM259.5 20.0456C262.254 20.0456 262.58 20.0561 263.667 20.1058C264.673 20.1516 265.219 20.3196 265.582 20.4608C266.063 20.6479 266.407 20.8714 266.768 21.2323C267.129 21.5931 267.352 21.9367 267.539 22.418C267.68 22.7814 267.848 23.3274 267.894 24.3328C267.944 25.4203 267.954 25.7464 267.954 28.5C267.954 31.2536 267.944 31.5797 267.894 32.6672C267.848 33.6726 267.68 34.2186 267.539 34.582C267.352 35.0634 267.129 35.4069 266.768 35.7677C266.407 36.1287 266.063 36.3521 265.582 36.5392C265.219 36.6804 264.673 36.8484 263.667 36.8942C262.58 36.9439 262.254 36.9544 259.5 36.9544C256.746 36.9544 256.42 36.9439 255.333 36.8942C254.327 36.8484 253.781 36.6804 253.418 36.5392C252.937 36.3521 252.593 36.1287 252.232 35.7677C251.871 35.4069 251.648 35.0634 251.461 34.582C251.32 34.2186 251.152 33.6726 251.106 32.6672C251.056 31.5797 251.046 31.2536 251.046 28.5C251.046 25.7464 251.056 25.4203 251.106 24.3328C251.152 23.3274 251.32 22.7814 251.461 22.418C251.648 21.9367 251.871 21.5931 252.232 21.2323C252.593 20.8714 252.937 20.6479 253.418 20.4608C253.781 20.3196 254.327 20.1516 255.333 20.1058C256.42 20.0561 256.746 20.0456 259.5 20.0456ZM259.5 23.2044C256.575 23.2044 254.204 25.5753 254.204 28.5C254.204 31.4247 256.575 33.7956 259.5 33.7956C262.425 33.7956 264.796 31.4247 264.796 28.5C264.796 25.5753 262.425 23.2044 259.5 23.2044ZM259.5 31.9375C257.602 31.9375 256.063 30.3985 256.063 28.5C256.063 26.6015 257.602 25.0625 259.5 25.0625C261.398 25.0625 262.937 26.6015 262.937 28.5C262.937 30.3985 261.398 31.9375 259.5 31.9375ZM266.242 22.9952C266.242 23.6786 265.688 24.2326 265.005 24.2326C264.321 24.2326 263.767 23.6786 263.767 22.9952C263.767 22.3117 264.321 21.7577 265.005 21.7577C265.688 21.7577 266.242 22.3117 266.242 22.9952Z" fill="white"/>
</g>
<defs>
<clipPath id="clip0_1276_14098">
<rect width="33" height="33" fill="white" transform="translate(12 12)"/>
</clipPath>
<clipPath id="clip1_1276_14098">
<rect width="33" height="33" fill="white" transform="translate(89 12)"/>
</clipPath>
<clipPath id="clip2_1276_14098">
<rect width="33" height="33" fill="white" transform="translate(166 12)"/>
</clipPath>
<clipPath id="clip3_1276_14098">
<rect width="33" height="33" fill="white" transform="translate(243 12)"/>
</clipPath>
</defs>
</svg>
