<svg width="65" height="65" viewBox="0 0 65 65" fill="none" xmlns="http://www.w3.org/2000/svg">
<circle cx="32.5" cy="32.5" r="32.5" fill="#B6BAFE"/>
<g clip-path="url(#clip0_1371_5802)">
<path d="M23.0719 29.4086C23.1646 29.301 29.42 23.2679 29.42 23.2679C30.2445 22.4589 31.3542 22.0069 32.5093 22.0093C33.6643 22.0118 34.7721 22.4686 35.5931 23.281C35.5931 23.281 41.8354 29.301 41.9272 29.406L34.3559 36.9783C33.8556 37.4551 33.1911 37.7211 32.5 37.7211C31.8089 37.7211 31.1444 37.4551 30.6441 36.9783L23.0719 29.4086ZM35.5931 38.219C34.77 39.0341 33.6584 39.4913 32.5 39.4913C31.3416 39.4913 30.23 39.0341 29.4069 38.219L22.2004 31.0125C22.0746 31.4114 22.0071 31.8263 22 32.2445V38.625C22.0014 39.7849 22.4628 40.8969 23.2829 41.7171C24.1031 42.5372 25.2151 42.9986 26.375 43H38.625C39.7849 42.9986 40.8969 42.5372 41.7171 41.7171C42.5372 40.8969 42.9986 39.7849 43 38.625V32.2445C42.9929 31.8263 42.9254 31.4114 42.7996 31.0125L35.5931 38.219Z" fill="#101222"/>
</g>
<defs>
<clipPath id="clip0_1371_5802">
<rect width="21" height="21" fill="white" transform="translate(22 22)"/>
</clipPath>
</defs>
</svg>
