<svg width="307" height="83" viewBox="0 0 307 83" fill="none" xmlns="http://www.w3.org/2000/svg">
<path d="M300.698 23.2041H306.945V66.9355H301.51L278.832 34.6992V66.9355H272.585V23.2041H278.02L300.698 55.4404V23.2041Z" fill="white"/>
<path d="M243.236 22.4546C256.168 22.4546 265.414 32.2629 265.414 45.07C265.414 57.877 256.168 67.7478 243.236 67.7478C230.241 67.7478 220.995 57.877 220.995 45.07C220.995 32.2629 230.241 22.4546 243.236 22.4546ZM243.236 61.8753C253.419 61.8753 259.104 53.5663 259.104 45.07C259.104 36.5736 253.419 28.2646 243.236 28.2646C233.052 28.2646 227.367 36.5736 227.367 45.07C227.367 53.5663 233.052 61.8753 243.236 61.8753Z" fill="white"/>
<path d="M218.175 23.2041V28.8892H207.118V66.9355H200.87V28.8892H189.812V23.2041H218.175Z" fill="white"/>
<path d="M164.839 22.4546C177.771 22.4546 187.017 32.2629 187.017 45.07C187.017 57.877 177.771 67.7478 164.839 67.7478C151.845 67.7478 142.599 57.877 142.599 45.07C142.599 32.2629 151.845 22.4546 164.839 22.4546ZM164.839 61.8753C175.022 61.8753 180.707 53.5663 180.707 45.07C180.707 36.5736 175.022 28.2646 164.839 28.2646C154.656 28.2646 148.971 36.5736 148.971 45.07C148.971 53.5663 154.656 61.8753 164.839 61.8753Z" fill="white"/>
<path d="M139.779 66.9355H132.283L123.224 50.0052C122.724 50.0677 122.162 50.0677 121.537 50.0677H114.29V66.9355H108.043V23.2041H121.537C131.533 23.2041 137.281 29.0766 137.281 36.6359C137.281 41.9461 134.469 46.3817 129.409 48.5683L139.779 66.9355ZM114.29 44.3826H121.537C127.597 44.3826 130.846 41.3214 130.846 36.6359C130.846 31.9504 127.597 28.8892 121.537 28.8892H114.29V44.3826Z" fill="white"/>
<path d="M85.3691 23.2041C95.2399 23.2041 101.175 29.5139 101.175 37.5105C101.175 45.5071 95.2399 51.7544 85.3691 51.7544H77.6848V66.9355H71.4375V23.2041H85.3691ZM85.3691 46.0694C91.2416 46.0694 94.7401 42.6333 94.7401 37.5105C94.7401 32.3877 91.2416 28.8892 85.3691 28.8892H77.6848V46.0694H85.3691Z" fill="white"/>
<path fill-rule="evenodd" clip-rule="evenodd" d="M45.8327 11.1107L36.1665 16.6656L26.501 22.2209V11.1107V0L36.1665 5.55537L45.8327 11.1107Z" fill="white"/>
<path fill-rule="evenodd" clip-rule="evenodd" d="M2.44531 11.1107L12.1114 16.6656L21.777 22.2209V11.1107V0L12.1114 5.55537L2.44531 11.1107Z" fill="white"/>
<path fill-rule="evenodd" clip-rule="evenodd" d="M0.083571 15.1826L0.0830078 26.2934L0.083571 37.4035L9.74913 31.8487L19.4147 26.2934L9.74913 20.738L0.083571 15.1826Z" fill="white"/>
<path fill-rule="evenodd" clip-rule="evenodd" d="M2.3623 41.5246L12.0279 47.0794L21.6934 52.6347V41.5246V30.4138L12.0279 35.9692L2.3623 41.5246Z" fill="white"/>
<path fill-rule="evenodd" clip-rule="evenodd" d="M48.1934 37.3612L38.5279 31.8064L28.8623 26.2511L38.5279 20.6957L48.1934 15.1409V26.2511V37.3612Z" fill="white"/>
<path fill-rule="evenodd" clip-rule="evenodd" d="M45.8327 41.4342L36.1665 35.8789L26.501 30.3235V41.4342V52.5444L36.1665 46.989L45.8327 41.4342Z" fill="white"/>
<path fill-rule="evenodd" clip-rule="evenodd" d="M19.3317 56.7066L9.66556 51.1512L0 45.5964V56.7066V67.8168L9.66556 62.262L19.3317 56.7066Z" fill="white"/>
<path fill-rule="evenodd" clip-rule="evenodd" d="M2.3623 71.8898L12.0279 66.3344L21.6934 60.7791V71.8898V83L12.0279 77.4446L2.3623 71.8898Z" fill="white"/>
</svg>
