<svg width="21" height="26" viewBox="0 0 21 26" fill="none" xmlns="http://www.w3.org/2000/svg">
<path d="M10.5 0C7.71523 0 5.04451 1.12061 3.07538 3.11532C1.10625 5.11002 0 7.81542 0 10.6364C0 20.0909 10.5 26 10.5 26C10.5 26 21 20.0909 21 10.6364C21 7.81542 19.8938 5.11002 17.9246 3.11532C15.9555 1.12061 13.2848 0 10.5 0ZM10.5 15.3636C9.57702 15.3636 8.67477 15.0864 7.90734 14.5669C7.13991 14.0475 6.54177 13.3092 6.18856 12.4454C5.83535 11.5816 5.74294 10.6311 5.923 9.71412C6.10307 8.79712 6.54752 7.9548 7.20017 7.29368C7.85281 6.63256 8.68433 6.18233 9.58958 5.99992C10.4948 5.81752 11.4331 5.91114 12.2859 6.26893C13.1386 6.62673 13.8674 7.23264 14.3802 8.01003C14.893 8.78743 15.1667 9.7014 15.1667 10.6364C15.1667 11.8901 14.675 13.0925 13.7998 13.979C12.9247 14.8656 11.7377 15.3636 10.5 15.3636Z" fill="#101222"/>
</svg>
