<svg width="23" height="23" viewBox="0 0 23 23" fill="none" xmlns="http://www.w3.org/2000/svg">
<path d="M22.0403 10.5411C21.7857 10.5411 21.5416 10.4401 21.3616 10.2604C21.1817 10.0807 21.0805 9.83704 21.0805 9.58293C21.0785 7.55067 20.2689 5.60223 18.8295 4.1652C17.3901 2.72818 15.4384 1.91996 13.4027 1.91794C13.1482 1.91794 12.9041 1.81699 12.7241 1.63731C12.5441 1.45762 12.443 1.21392 12.443 0.95981C12.443 0.7057 12.5441 0.461997 12.7241 0.282314C12.9041 0.102631 13.1482 0.00168598 13.4027 0.00168598C15.9472 0.00447565 18.3867 1.01482 20.1859 2.81105C21.9852 4.60728 22.9972 7.04268 23 9.58293C23 9.83704 22.8989 10.0807 22.7189 10.2604C22.5389 10.4401 22.2948 10.5411 22.0403 10.5411ZM19.1611 9.58293C19.1611 8.05827 18.5544 6.59605 17.4745 5.51795C16.3946 4.43985 14.9299 3.83418 13.4027 3.83418C13.1482 3.83418 12.9041 3.93513 12.7241 4.11481C12.5441 4.2945 12.443 4.5382 12.443 4.79231C12.443 5.04642 12.5441 5.29012 12.7241 5.4698C12.9041 5.64949 13.1482 5.75043 13.4027 5.75043C14.4209 5.75043 15.3973 6.15421 16.1172 6.87294C16.8372 7.59168 17.2416 8.56649 17.2416 9.58293C17.2416 9.83704 17.3427 10.0807 17.5227 10.2604C17.7027 10.4401 17.9468 10.5411 18.2014 10.5411C18.4559 10.5411 18.7 10.4401 18.88 10.2604C19.06 10.0807 19.1611 9.83704 19.1611 9.58293ZM21.2562 21.2376L22.1295 20.2325C22.6854 19.6757 22.9975 18.9217 22.9975 18.1356C22.9975 17.3495 22.6854 16.5955 22.1295 16.0388C22.0998 16.0091 19.7907 14.2356 19.7907 14.2356C19.2365 13.7089 18.5003 13.4157 17.7352 13.4167C16.9701 13.4178 16.2348 13.7131 15.6821 14.2413L13.8528 15.7801C12.3597 15.1631 11.0033 14.2578 9.86161 13.116C8.71991 11.9743 7.8154 10.6186 7.20001 9.12686L8.73557 7.30643C9.26507 6.75471 9.56122 6.02051 9.56247 5.25643C9.56373 4.49235 9.26998 3.75718 8.74229 3.20374C8.74229 3.20374 6.96392 0.901365 6.93416 0.871663C6.38659 0.321458 5.64418 0.00841394 4.86732 0.000167144C4.09047 -0.00807966 3.34155 0.289133 2.78238 0.827589L1.6787 1.78571C-4.84169 9.33765 9.19912 23.2467 17.0132 22.9967C17.8023 23.0012 18.5843 22.8479 19.313 22.5458C20.0418 22.2437 20.7025 21.7988 21.2562 21.2376Z" fill="#101222"/>
</svg>
