<svg xmlns="http://www.w3.org/2000/svg" viewBox="0 0 3204.17 689.81"><defs><style>.cls-1{font-size:581.46px;font-family:Android;letter-spacing:-0.04em;}.cls-1,.cls-2,.cls-4{fill:#fff;}.cls-2,.cls-3{fill-rule:evenodd;}.cls-3{fill:#ff5800;}</style></defs><g id="Layer_2" data-name="Layer 2"><g id="Layer_1-2" data-name="Layer 1"><text class="cls-1" transform="translate(618.11 536.68)">PROTON</text><path class="cls-2" d="M458.69,111.4,362,167.08l-35.89,20.67a111.16,111.16,0,0,0-60.84-33.95V0L362,55.7Z"/><path class="cls-2" d="M217.94,0V154.91a111.24,111.24,0,0,0-57.5,34.76l-39.23-22.59L24.47,111.4l96.74-55.7Z"/><path class="cls-2" d="M137.71,296.19,97.57,319.31.84,375V152.22l96.73,55.69,39.92,23a111.86,111.86,0,0,0,.22,65.29Z"/><path class="cls-2" d="M217.11,371.27V527.7L120.38,472,23.63,416.32l96.75-55.7,40.56-23.36A111.38,111.38,0,0,0,217.11,371.27Z"/><path class="cls-2" d="M482.33,151.8V374.57L385.6,318.89,349.85,298.3a111.91,111.91,0,0,0,0-70.22l35.75-20.59Z"/><path class="cls-2" d="M458.69,415.4,362,471.09l-96.73,55.7V372.57A111.07,111.07,0,0,0,325.8,338.9L362,359.71Z"/><path class="cls-2" d="M193.47,568.53l-96.74-55.7L0,457.14V679.91l96.73-55.69Z"/><path class="cls-3" d="M483.07,466.6,385.59,521l-97.47,54.38,95.56,57.22,95.57,57.22,1.91-111.6Z"/><path class="cls-4" d="M292.2,249.18h0l-42.36-38.49a8.48,8.48,0,0,0-11.44,0l-42.35,38.49a8.45,8.45,0,0,0-2.75,6.25v49a8.47,8.47,0,0,0,8.47,8.47h84.71A8.47,8.47,0,0,0,295,304.4v-49A8.49,8.49,0,0,0,292.2,249.18Z"/></g></g></svg>