<svg width="185" height="57" viewBox="0 0 185 57" fill="none" xmlns="http://www.w3.org/2000/svg">
<path d="M58.136 16.5C63.491 16.5 66.571 19.58 66.571 24.095C66.571 28.61 63.491 31.69 58.136 31.69H52.711V41H50.821V16.5H58.136ZM58.136 29.8C62.441 29.8 64.681 27.56 64.681 24.095C64.681 20.63 62.441 18.39 58.136 18.39H52.711V29.8H58.136ZM87.6169 41H85.4469L79.0419 30.675C78.5869 30.71 78.0969 30.745 77.6069 30.745H72.6369V41H70.7819V16.5H77.6069C82.9619 16.5 86.1819 19.125 86.1819 23.64C86.1819 27.07 84.2919 29.415 81.0019 30.325L87.6169 41ZM72.6369 28.89H77.6069C81.9119 28.89 84.3269 27.105 84.3269 23.64C84.3269 20.14 81.9119 18.39 77.6069 18.39H72.6369V28.89ZM102.424 16.08C109.424 16.08 114.814 21.75 114.814 28.75C114.814 35.75 109.424 41.455 102.424 41.455C95.4238 41.455 90.0688 35.75 90.0688 28.75C90.0688 21.75 95.4238 16.08 102.424 16.08ZM102.424 39.565C108.409 39.565 112.959 34.735 112.959 28.75C112.959 22.8 108.409 17.935 102.424 17.935C96.4738 17.935 91.9238 22.8 91.9238 28.75C91.9238 34.735 96.4738 39.565 102.424 39.565ZM132.16 16.5V18.39H125.44V41H123.585V18.39H116.9V16.5H132.16ZM146.618 16.08C153.618 16.08 159.008 21.75 159.008 28.75C159.008 35.75 153.618 41.455 146.618 41.455C139.618 41.455 134.263 35.75 134.263 28.75C134.263 21.75 139.618 16.08 146.618 16.08ZM146.618 39.565C152.603 39.565 157.153 34.735 157.153 28.75C157.153 22.8 152.603 17.935 146.618 17.935C140.668 17.935 136.118 22.8 136.118 28.75C136.118 34.735 140.668 39.565 146.618 39.565ZM180.311 16.5H182.166V41H180.311L165.401 19.685V41H163.546V16.5H165.401L180.311 37.815V16.5Z" fill="white"/>
<g clip-path="url(#clip0_608_5254)">
<path fill-rule="evenodd" clip-rule="evenodd" d="M31.383 7.63024L24.7643 11.445L18.1459 15.2601V7.63024V0L24.7643 3.81512L31.383 7.63024Z" fill="white"/>
<path fill-rule="evenodd" clip-rule="evenodd" d="M1.67407 7.63024L8.29281 11.445L14.9112 15.2601V7.63024V0L8.29281 3.81512L1.67407 7.63024Z" fill="white"/>
<path fill-rule="evenodd" clip-rule="evenodd" d="M0.0570873 10.4266L0.0567017 18.0568L0.0570873 25.6867L6.67544 21.872L13.2938 18.0568L6.67544 14.2417L0.0570873 10.4266Z" fill="white"/>
<path fill-rule="evenodd" clip-rule="evenodd" d="M1.61737 28.5166L8.23573 32.3313L14.8541 36.1464V28.5166V20.8863L8.23573 24.7014L1.61737 28.5166Z" fill="white"/>
<path fill-rule="evenodd" clip-rule="evenodd" d="M33 25.6574L26.3817 21.8427L19.7633 18.0276L26.3817 14.2125L33 10.3977V18.0276V25.6574Z" fill="white"/>
<path fill-rule="evenodd" clip-rule="evenodd" d="M31.383 28.4546L24.7643 24.6395L18.1459 20.8243V28.4546V36.0844L24.7643 32.2693L31.383 28.4546Z" fill="white"/>
<path fill-rule="evenodd" clip-rule="evenodd" d="M13.2371 38.9431L6.61836 35.128L0 31.3133V38.9431V46.573L6.61836 42.7583L13.2371 38.9431Z" fill="white"/>
<path fill-rule="evenodd" clip-rule="evenodd" d="M1.61737 49.3701L8.23573 45.555L14.8541 41.7399V49.3701V57L8.23573 53.1849L1.61737 49.3701Z" fill="white"/>
</g>
<defs>
<clipPath id="clip0_608_5254">
<rect width="33" height="57" fill="white"/>
</clipPath>
</defs>
</svg>
