<svg width="126" height="126" viewBox="0 0 126 126" fill="none" xmlns="http://www.w3.org/2000/svg">
<path d="M123.368 32.673C121.919 27.2516 117.65 22.9826 112.228 21.5336C102.401 18.9004 63 18.9004 63 18.9004C63 18.9004 23.5987 18.9004 13.7717 21.5336C8.35119 22.9826 4.08122 27.2516 2.63246 32.673C0 42.4991 0 63.0011 0 63.0011C0 63.0011 0 83.5027 2.63246 93.3278C4.08122 98.7492 8.35119 103.019 13.7717 104.468C23.5987 107.1 63 107.1 63 107.1C63 107.1 102.401 107.1 112.228 104.468C117.65 103.019 121.919 98.7492 123.368 93.3278C126 83.5027 126 63.0011 126 63.0011C126 63.0011 126 42.4991 123.368 32.673ZM50.3993 81.9014V44.1006L83.1344 63.0011L50.3993 81.9014Z" fill="white"/>
</svg>
