<svg width="52" height="52" viewBox="0 0 52 52" fill="none" xmlns="http://www.w3.org/2000/svg">
<path d="M17.9115 31.8066C17.5128 31.8066 17.2441 31.8456 17.1055 31.8846V34.437C17.2701 34.476 17.476 34.4868 17.7598 34.4868C18.7976 34.4868 19.4368 33.9625 19.4368 33.0763C19.4368 32.2833 18.8865 31.8066 17.9115 31.8066ZM25.4666 31.8326C25.0333 31.8326 24.7516 31.8716 24.5848 31.9106V37.5656C24.7516 37.6046 25.0203 37.6046 25.263 37.6046C27.0331 37.6176 28.1858 36.6426 28.1858 34.58C28.1988 32.7816 27.148 31.8326 25.4666 31.8326Z" fill="white"/>
<path d="M30.3327 4.33398H12.9993C11.8501 4.33398 10.7479 4.79053 9.93522 5.60319C9.12256 6.41585 8.66602 7.51805 8.66602 8.66732V43.334C8.66602 44.4833 9.12256 45.5855 9.93522 46.3981C10.7479 47.2108 11.8501 47.6673 12.9993 47.6673H38.9994C40.1486 47.6673 41.2508 47.2108 42.0635 46.3981C42.8761 45.5855 43.3327 44.4833 43.3327 43.334V17.334L30.3327 4.33398ZM20.5783 35.079C19.9088 35.7073 18.9208 35.989 17.7703 35.989C17.5473 35.9914 17.3243 35.9784 17.103 35.95V39.0396H15.166V30.5116C16.0402 30.3812 16.9234 30.3218 17.8072 30.334C19.014 30.334 19.872 30.5636 20.4505 31.0251C21.0008 31.4628 21.3735 32.18 21.3735 33.025C21.3713 33.8743 21.0897 34.5915 20.5783 35.079ZM28.8269 38.0148C27.9169 38.771 26.5323 39.1306 24.8402 39.1306C23.8262 39.1306 23.109 39.0656 22.6215 39.0006V30.5138C23.496 30.3862 24.379 30.3261 25.2627 30.334C26.9028 30.334 27.9689 30.6286 28.8009 31.257C29.7 31.9243 30.2634 32.9881 30.2634 34.5156C30.2634 36.1688 29.6589 37.3106 28.8269 38.0148ZM36.8327 32.0023H33.5134V33.9761H36.616V35.5665H33.5134V39.0418H31.5504V30.399H36.8327V32.0023ZM30.3327 19.5006H28.166V8.66732L38.9994 19.5006H30.3327Z" fill="white"/>
</svg>
